<?xml version="1.0" encoding="UTF-8" standalone="no"?>
<!-- Created with Inkscape (http://www.inkscape.org/) -->

<svg
   width="128"
   height="128"
   viewBox="0 0 128 128"
   version="1.1"
   id="svg1"
   inkscape:version="1.3.2 (091e20e, 2023-11-25, custom)"
   sodipodi:docname="crafted.svg"
   xml:space="preserve"
   xmlns:inkscape="http://www.inkscape.org/namespaces/inkscape"
   xmlns:sodipodi="http://sodipodi.sourceforge.net/DTD/sodipodi-0.dtd"
   xmlns="http://www.w3.org/2000/svg"
   xmlns:svg="http://www.w3.org/2000/svg"><sodipodi:namedview
     id="namedview1"
     pagecolor="#909090"
     bordercolor="#616161"
     borderopacity="1"
     inkscape:showpageshadow="0"
     inkscape:pageopacity="0"
     inkscape:pagecheckerboard="0"
     inkscape:deskcolor="#6d6d6d"
     inkscape:document-units="px"
     inkscape:zoom="256"
     inkscape:cx="0.20507812"
     inkscape:cy="31.943359"
     inkscape:window-width="1920"
     inkscape:window-height="1009"
     inkscape:window-x="-8"
     inkscape:window-y="-8"
     inkscape:window-maximized="1"
     inkscape:current-layer="layer1" /><defs
     id="defs1" /><g
     inkscape:label="Layer 1"
     inkscape:groupmode="layer"
     id="layer1"><path
       style="fill:#000000;fill-opacity:1;stroke:none;stroke-width:6.42485;stroke-dasharray:none;stroke-opacity:1"
       d="m 32.338556,95.670959 c -0.216479,-0.216473 -0.319909,-1.456729 -0.319909,-3.836033 0,-2.967335 0.0728,-3.599556 0.466533,-4.05065 0.256596,-0.293989 3.645632,-2.89923 7.531199,-5.789428 3.88556,-2.890207 7.274596,-5.495451 7.531196,-5.789438 0.416418,-0.477108 0.466535,-1.219557 0.466535,-6.911737 0,-6.843989 -0.08422,-7.371021 -1.467252,-9.184297 C 45.452399,58.674464 43.936081,58.123059 41.051271,58.110915 34.583752,58.083675 24.514794,55.259498 16.780636,51.303378 9.9243026,47.796278 3.8921268,42.952979 0.96263109,38.602925 0.17133607,37.427923 -0.17790838,36.466321 0.09437597,36.212311 0.13101602,36.178111 8.678605,36.088151 19.088984,36.012371 l 18.927961,-0.137781 0.0291,-1.50921 c 0.016,-0.830068 0.10218,-1.69982 0.19158,-1.932786 0.147598,-0.384674 4.244907,-0.423553 44.638252,-0.423553 34.236803,0 44.549393,0.07364 44.795633,0.319913 0.44124,0.441209 0.43032,5.030573 -0.012,5.617294 -0.1832,0.242386 -1.39775,0.813774 -2.69882,1.269755 -10.80053,3.785227 -24.29549,11.443071 -30.218038,17.147524 -3.090064,2.976253 -4.693066,5.046343 -5.926168,7.652886 l -0.812001,1.71639 -2e-4,4.96905 c -2e-4,4.351254 0.0578,5.035501 0.466321,5.503567 0.256621,0.293989 3.645644,2.899231 7.53119,5.789438 3.885564,2.890198 7.274616,5.495439 7.531206,5.789428 0.39371,0.451094 0.46655,1.083315 0.46655,4.05065 0,2.379314 -0.10341,3.61956 -0.31992,3.836033 -0.23477,0.23477 -2.47397,0.319907 -8.413578,0.319907 h -8.09373 l -1.2503,-0.956379 C 83.172538,92.931368 78.059191,91.0019 73.626886,90.395029 72.434944,90.231808 69.907229,90.0983 68.009766,90.0983 c -7.273921,0 -12.974147,1.526347 -17.490333,4.683386 l -1.729755,1.20919 h -8.064942 c -5.91727,0 -8.150123,-0.08518 -8.384841,-0.319907 z"
       id="path1" /></g></svg>
