<?xml version="1.0" encoding="UTF-8" standalone="no"?>
<svg
   aria-hidden="true"
   role="img"
   width="128"
   height="128"
   fill="none"
   viewBox="0 0 102.4 102.4"
   version="1.1"
   id="svg302"
   sodipodi:docname="discord.svg"
   inkscape:version="1.2.2 (732a01da63, 2022-12-09)"
   xmlns:inkscape="http://www.inkscape.org/namespaces/inkscape"
   xmlns:sodipodi="http://sodipodi.sourceforge.net/DTD/sodipodi-0.dtd"
   xmlns="http://www.w3.org/2000/svg"
   xmlns:svg="http://www.w3.org/2000/svg">
  <defs
     id="defs306" />
  <sodipodi:namedview
     id="namedview304"
     pagecolor="#505050"
     bordercolor="#eeeeee"
     borderopacity="1"
     inkscape:showpageshadow="0"
     inkscape:pageopacity="0"
     inkscape:pagecheckerboard="0"
     inkscape:deskcolor="#505050"
     showgrid="false"
     inkscape:zoom="2.8284271"
     inkscape:cx="78.135299"
     inkscape:cy="59.396969"
     inkscape:window-width="1920"
     inkscape:window-height="1009"
     inkscape:window-x="3832"
     inkscape:window-y="1064"
     inkscape:window-maximized="1"
     inkscape:current-layer="svg302" />
  <circle
     style="fill:#5865f2;fill-opacity:1;stroke-width:4.14542;stroke-linecap:round;stroke-linejoin:round"
     id="path2075"
     cx="51.201"
     cy="51.201"
     r="51.200996" />
  <path
     fill="currentColor"
     d="m 73.674101,31.882555 a 51.541124,51.541124 0 0 0 -13.026877,-4.07798 c -0.594706,1.132772 -1.132771,2.265542 -1.64252,3.426636 -4.785961,-0.707984 -9.628562,-0.707984 -14.442842,0 -0.509749,-1.161094 -1.047814,-2.322182 -1.670839,-3.398317 -4.531089,0.764621 -8.892261,2.123947 -13.026879,4.049661 a 53.919947,53.919947 0 0 0 -9.345368,36.33366 52.192469,52.192469 0 0 0 15.943765,8.12764 c 1.302689,-1.755797 2.435461,-3.624871 3.398316,-5.607222 -1.840754,-0.707983 -3.653191,-1.55756 -5.380667,-2.605377 0.481429,-0.339831 0.906218,-0.679662 1.331007,-1.047813 10.13831,4.814282 21.80586,4.814282 31.944171,0 l 1.302687,1.047813 c -1.699159,1.019497 -3.539913,1.897394 -5.380667,2.605377 0.991176,1.982351 2.123949,3.823107 3.398316,5.607222 5.748817,-1.784115 11.157805,-4.531089 15.972078,-8.12764 1.331017,-13.791498 -2.2089,-25.742242 -9.345363,-36.33366 z m -32.36896,29.027281 c -3.115122,0 -5.66386,-2.888569 -5.66386,-6.428481 0,-3.511594 2.4921,-6.400161 5.66386,-6.400161 3.171762,0 5.720499,2.888567 5.663859,6.400161 0,3.539912 -2.520416,6.428481 -5.663859,6.428481 z m 20.956281,0 c -3.115122,0 -5.663859,-2.888569 -5.663859,-6.428481 0,-3.511594 2.4921,-6.400161 5.663859,-6.400161 3.171763,0 5.7205,2.888567 5.66386,6.400161 0,3.539912 -2.492097,6.428481 -5.66386,6.428481 z"
     class=""
     id="path300"
     style="fill:#ffffff;fill-opacity:1;stroke-width:2.83193" />
</svg>
