<?xml version="1.0" encoding="UTF-8" standalone="no"?>
<!-- Created with Inkscape (http://www.inkscape.org/) -->

<svg
   width="128"
   height="128"
   viewBox="0 0 128 128"
   version="1.1"
   id="svg1"
   inkscape:version="1.2.2 (732a01da63, 2022-12-09)"
   sodipodi:docname="duplicates.svg"
   xml:space="preserve"
   xmlns:inkscape="http://www.inkscape.org/namespaces/inkscape"
   xmlns:sodipodi="http://sodipodi.sourceforge.net/DTD/sodipodi-0.dtd"
   xmlns="http://www.w3.org/2000/svg"
   xmlns:svg="http://www.w3.org/2000/svg"><sodipodi:namedview
     id="namedview1"
     pagecolor="#909090"
     bordercolor="#616161"
     borderopacity="1"
     inkscape:showpageshadow="0"
     inkscape:pageopacity="0"
     inkscape:pagecheckerboard="0"
     inkscape:deskcolor="#6d6d6d"
     inkscape:document-units="px"
     inkscape:zoom="256"
     inkscape:cx="-1.4414062"
     inkscape:cy="-0.7265625"
     inkscape:window-width="1920"
     inkscape:window-height="1009"
     inkscape:window-x="3832"
     inkscape:window-y="1063"
     inkscape:window-maximized="1"
     inkscape:current-layer="layer1"
     showgrid="false" /><defs
     id="defs1"><inkscape:path-effect
       effect="offset"
       id="path-effect5313"
       is_visible="true"
       lpeversion="1.2"
       linejoin_type="miter"
       unit="mm"
       offset="-0.73666785"
       miter_limit="4"
       attempt_force_join="false"
       update_on_knot_move="true" /></defs><g
     inkscape:label="Layer 1"
     inkscape:groupmode="layer"
     id="layer1"><path
       style="fill:#000000;stroke-width:0.260914"
       d="m 41.947266,0.05273437 c 14.698612,-0.07135834 22.61636,0.0087901 24.160156,0.16796875 9.470752,0.97586708 17.113163,6.88987638 20.3125,15.65624988 1.210301,3.316325 1.388672,4.862347 1.388672,13.582031 v 10.708985 h 10.708984 c 8.448102,0 10.133192,0.183613 13.224612,1.238281 8.79899,3.001868 14.9363,10.698865 15.98633,20.115234 0.36058,3.233753 0.36626,41.546666 0.008,44.972656 -0.59399,5.66776 -2.82588,10.3493 -6.86719,14.39063 -4.04162,4.04163 -8.72102,6.2732 -14.38867,6.86718 -3.02593,0.31712 -42.515496,0.30052 -45.312501,-0.0195 h -0.0039 C 52.139035,126.69906 44.343086,120.40624 41.392578,111.75781 40.33745,108.66506 40.152344,106.98063 40.152344,98.533203 V 87.824219 H 29.445312 c -5.856395,0 -8.219357,-0.09102 -9.691406,-0.347657 C 10.758763,85.907945 3.4006545,79.208127 0.93554688,70.3125 0.0457739,67.101646 -0.07297387,64.640307 0.03710937,41.962891 0.15281548,18.129653 -0.11299603,19.947049 1.6367188,15.402344 4.0083995,9.2421701 9.2265401,4.0240232 15.386719,1.6523438 19.931422,-0.09738159 18.114022,0.16842809 41.947266,0.05273437 Z m 1.943359,7.67968753 c -23.160583,0 -24.428806,0.3264539 -27.464844,1.9335937 C 13.816711,11.047213 11.031588,13.832342 9.6503906,16.441406 8.042734,19.478251 7.71875,20.74583 7.71875,43.90625 c 0,22.861682 0.060919,23.82323 1.7480469,27.300781 1.1639791,2.39907 4.6280341,5.907423 7.0136721,7.115235 3.045512,1.541827 4.699966,1.729426 13.099609,1.748046 l 10.496094,0.02344 0.146484,-11.691406 c 0.101608,-8.088465 0.147115,-8.714852 0.560547,-10.185547 2.491905,-8.864495 8.554893,-14.925916 17.419922,-17.417969 1.474187,-0.414414 2.096101,-0.460916 10.183594,-0.5625 L 80.072266,40.091797 V 29.720703 c 0,-8.314934 -0.222852,-10.177574 -1.769532,-13.232422 -1.205381,-2.380916 -4.7124,-5.842893 -7.109375,-7.0058591 -3.473183,-1.6851176 -4.43946,-1.75 -27.302734,-1.75 z M 83.951172,47.908203 c -18.174251,0.0026 -22.162449,-0.03232 -24.044922,0.46875 -5.536889,1.473702 -10.071228,6.008038 -11.544922,11.544922 -0.714916,2.68603 -0.698634,45.454895 0.0078,48.167965 0.780076,2.99494 2.024442,5.02138 4.355468,7.3418 2.434744,2.42365 4.604715,3.67164 7.8125,4.36719 2.592679,0.56221 43.518341,0.65867 46.355471,0.14453 6.36714,-1.15429 11.88082,-6.66797 13.03515,-13.03516 0.18532,-1.02218 0.3233,-9.14242 0.32032,-22.935544 -0.004,-22.737603 -0.0688,-23.714525 -1.75391,-27.1875 -1.16261,-2.396256 -4.62261,-5.903819 -7.00391,-7.109375 -2.85672,-1.446248 -3.70381,-1.770947 -27.539058,-1.767578 z"
       id="path1"
       inkscape:path-effect="#path-effect5313"
       inkscape:original-d="M 60.850169,130.49843 C 50.753876,129.34326 42.052548,122.3163 38.757028,112.65658 37.580086,109.20677 37.368011,107.05039 37.368011,98.53311 v -7.923666 h -7.923665 c -5.872298,0 -8.504759,-0.101407 -10.168224,-0.391414 C 9.21276,88.463131 1.0029595,80.980312 -1.7470732,71.0565 -2.7627061,67.391465 -2.8572405,64.639851 -2.747093,41.949197 -2.6314033,18.119339 -2.679816,18.866092 -0.96137791,14.402625 1.6921902,7.5102811 7.4950672,1.7074031 14.387415,-0.94616295 c 4.46346,-1.71844645 3.71671,-1.67003995 27.546573,-1.78571725 14.704721,-0.071388 22.555722,-0.012521 24.459556,0.1837807 10.572887,1.0894311 19.05161,7.6310807 22.642103,17.4692465 1.334378,3.656307 1.558601,5.747717 1.558601,14.538417 v 7.923662 h 7.923644 c 8.517318,0 10.673658,0.212084 14.123458,1.389016 9.83438,3.355102 16.68664,11.967719 17.85456,22.441299 0.36058,3.233753 0.3692,42.146009 0.0107,45.572479 -0.66093,6.30655 -3.17451,11.5729 -7.66839,16.0668 -4.49389,4.4939 -9.76027,7.00743 -16.06677,7.66837 -3.02593,0.31712 -43.123661,0.29725 -45.920665,-0.0228 z m 45.546621,-13.29562 c 5.26945,-0.9553 9.83548,-5.52133 10.79081,-10.79085 0.18532,-1.02218 0.27911,-8.645253 0.27613,-22.438488 -0.004,-22.725632 -0.0189,-22.973003 -1.47481,-25.973583 -0.88333,-1.820636 -3.93792,-4.919732 -5.75661,-5.840464 -2.96046,-1.498767 -2.44346,-1.469917 -26.28094,-1.466548 -18.171041,0.0026 -22.167034,0.06693 -23.327825,0.375908 -4.596742,1.223472 -8.346501,4.973233 -9.569966,9.569969 -0.567032,2.130412 -0.557786,44.568546 0.01001,46.749136 0.622595,2.39032 1.640465,4.09439 3.626528,6.07142 2.06303,2.05363 3.847798,3.05701 6.436133,3.61824 2.156074,0.46754 42.76265,0.57986 45.27035,0.12542 z M 37.438495,68.366623 c 0.101815,-8.104981 0.163664,-9.119202 0.665058,-10.902803 2.775641,-9.873834 9.471219,-16.569413 19.345057,-19.345053 1.7836,-0.501394 2.797824,-0.563257 10.902801,-0.66506 l 8.936255,-0.112247 v -7.62123 c 0,-8.255929 -0.132091,-9.33333 -1.469618,-11.97508 -0.920741,-1.818683 -4.019852,-4.873289 -5.840484,-5.756625 -3.003459,-1.457217 -3.234961,-1.470266 -26.086733,-1.470266 -23.160769,0 -23.116982,-0.0026 -26.161636,1.609101 -2.07846,1.100301 -4.516743,3.538584 -5.617046,5.617042 -1.611792,3.044656 -1.609097,3.000871 -1.609097,26.161641 0,22.851766 0.01314,23.08327 1.470264,26.086731 0.884918,1.8239 3.939009,4.92023 5.764802,5.844601 2.607054,1.319853 3.506552,1.429825 11.846853,1.448314 l 7.741278,0.01669 z" /></g></svg>
