<?xml version="1.0" encoding="UTF-8" standalone="no"?>
<!-- Created with Inkscape (http://www.inkscape.org/) -->

<svg
   width="128"
   height="128"
   viewBox="0 0 33.866666 33.866666"
   version="1.1"
   id="svg1155"
   inkscape:version="1.2.2 (732a01da63, 2022-12-09)"
   sodipodi:docname="explorer.svg"
   xml:space="preserve"
   xmlns:inkscape="http://www.inkscape.org/namespaces/inkscape"
   xmlns:sodipodi="http://sodipodi.sourceforge.net/DTD/sodipodi-0.dtd"
   xmlns="http://www.w3.org/2000/svg"
   xmlns:svg="http://www.w3.org/2000/svg"><sodipodi:namedview
     id="namedview1157"
     pagecolor="#505050"
     bordercolor="#eeeeee"
     borderopacity="1"
     inkscape:showpageshadow="0"
     inkscape:pageopacity="0"
     inkscape:pagecheckerboard="0"
     inkscape:deskcolor="#505050"
     inkscape:document-units="px"
     showgrid="false"
     inkscape:zoom="256"
     inkscape:cx="-0.54101562"
     inkscape:cy="0.1171875"
     inkscape:window-width="1920"
     inkscape:window-height="1009"
     inkscape:window-x="3832"
     inkscape:window-y="1063"
     inkscape:window-maximized="1"
     inkscape:current-layer="layer1" /><defs
     id="defs1152" /><g
     inkscape:label="Layer 1"
     inkscape:groupmode="layer"
     id="layer1"><path
       id="path3661"
       style="stroke-width:3.91705;stroke-linecap:round;stroke-linejoin:round"
       d="M 16.93374,6.2543059e-8 A 16.933737,16.933737 0 0 0 6.2543059e-8,16.93374 16.933737,16.933737 0 0 0 16.93374,33.867483 16.933737,16.933737 0 0 0 33.867483,16.93374 16.933737,16.933737 0 0 0 16.93374,6.2543059e-8 Z M 22.273147,6.5384703 c 0.116077,0.00197 0.23258,0.0144 0.348081,0.037339 1.10255,0.2193107 1.794193,1.3194702 1.51451,2.4082799 L 21.478,19.30902 c -0.116137,0.449395 -0.387941,0.842676 -0.767226,1.110231 l -8.719047,6.15703 C 10.501887,27.627182 8.5104807,26.251289 8.9663277,24.485989 L 11.630231,14.195142 c 0.115358,-0.44703 0.385239,-0.83897 0.761426,-1.106606 l 8.714332,-6.1896664 c 0.247048,-0.1751357 0.528285,-0.288567 0.821254,-0.3357539 0.113917,-0.0184 0.229841,-0.026659 0.345904,-0.024659 z m -5.926429,8.4550837 a 1.7171959,1.7171959 0 0 0 -0.298043,0.02792 1.7171959,1.7171959 0 0 0 -1.381807,1.996747 1.7171959,1.7171959 0 0 0 1.996748,1.382171 1.7171959,1.7171959 0 0 0 1.382171,-1.997112 1.7171959,1.7171959 0 0 0 -1.699069,-1.409726 z" /></g></svg>
