<?xml version="1.0" encoding="UTF-8" standalone="no"?>
<!-- Created with Inkscape (http://www.inkscape.org/) -->

<svg
   width="128"
   height="128"
   viewBox="0 0 33.866666 33.866666"
   version="1.1"
   id="svg1155"
   inkscape:version="1.2.2 (732a01da63, 2022-12-09)"
   sodipodi:docname="farm.svg"
   xml:space="preserve"
   xmlns:inkscape="http://www.inkscape.org/namespaces/inkscape"
   xmlns:sodipodi="http://sodipodi.sourceforge.net/DTD/sodipodi-0.dtd"
   xmlns="http://www.w3.org/2000/svg"
   xmlns:svg="http://www.w3.org/2000/svg"><sodipodi:namedview
     id="namedview1157"
     pagecolor="#505050"
     bordercolor="#eeeeee"
     borderopacity="1"
     inkscape:showpageshadow="0"
     inkscape:pageopacity="0"
     inkscape:pagecheckerboard="0"
     inkscape:deskcolor="#505050"
     inkscape:document-units="px"
     showgrid="false"
     inkscape:zoom="256"
     inkscape:cx="-1.4628906"
     inkscape:cy="4.875"
     inkscape:window-width="1920"
     inkscape:window-height="1009"
     inkscape:window-x="3832"
     inkscape:window-y="1063"
     inkscape:window-maximized="1"
     inkscape:current-layer="layer1" /><defs
     id="defs1152" /><g
     inkscape:label="Layer 1"
     inkscape:groupmode="layer"
     id="layer1"><g
       id="g2001"
       transform="matrix(1.0338815,0,0,1.0338815,107.34472,-102.61633)"><path
         style="fill:#000000;stroke-width:0.264583"
         d="m -103.64775,120.50958 c -0.0981,-0.0981 -0.17841,-0.33715 -0.17841,-0.53118 0,-0.26631 0.55122,-0.35278 2.24896,-0.35278 h 2.24896 v -1.02371 c 0,-0.96034 -0.05601,-1.03281 -0.90467,-1.17053 -1.84448,-0.29931 -2.82921,-1.39896 -3.18834,-3.56045 l -0.18684,-1.12448 h 0.90446 c 0.49745,0 1.46042,0.28147 2.13992,0.62548 l 1.23547,0.62547 v -0.99094 c 0,-0.94643 -0.05097,-1.00377 -1.1349,-1.27671 -1.11639,-0.28111 -1.98361,-0.98351 -2.50138,-2.026 -0.41912,-0.84388 -0.63836,-2.45678 -0.35754,-2.63035 0.41756,-0.25806 2.43234,0.30111 3.2421,0.8998 l 0.75172,0.55576 v -0.84144 c 0,-0.4628 -0.314651,-1.48457 -0.69922,-2.27061 -0.62487,-1.27718 -0.66709,-1.53644 -0.39699,-2.43794 0.35696,-1.19143 1.248162,-2.40335 1.767333,-2.40335 0.202473,0 0.670082,0.44436 1.03913,0.98746 0.84487,1.24334 0.905242,3.0192 0.14183,4.17192 -0.29098,0.43936 -0.526458,1.24133 -0.527423,1.79624 l -0.0017,1.00249 0.551333,-0.51364 c 0.482151,-0.44919 2.332079,-1.09447 3.137704,-1.09447 0.362248,0 0.360686,1.60392 -0.0025,2.56246 -0.434865,1.14774 -1.230932,1.84587 -2.514665,2.20529 -1.129713,0.3163 -1.171885,0.36524 -1.171885,1.35997 v 1.03187 l 0.766211,-0.56648 c 0.421416,-0.31157 1.314384,-0.62827 1.984375,-0.70379 l 1.218164,-0.13731 v 0.98662 c 0,1.47198 -0.711905,2.73386 -1.877953,3.32874 -0.556261,0.28378 -1.254251,0.51596 -1.55109,0.51596 -0.453763,0 -0.539707,0.16946 -0.539707,1.06418 v 1.06417 l 4.960937,-0.072 4.960938,-0.072 v -0.89684 c 0,-0.82927 -0.08634,-0.92233 -1.145953,-1.2352 -0.630275,-0.18609 -1.390848,-0.55642 -1.690163,-0.82295 -0.70485,-0.62764 -1.264926,-1.96661 -1.264926,-3.02405 v -0.83666 l 1.218164,0.13731 c 0.66999,0.0755 1.558138,0.38866 1.973661,0.69587 0.415523,0.30721 0.819851,0.55856 0.898504,0.55856 0.07865,0 0.143004,-0.46679 0.143004,-1.03731 0,-0.95592 -0.06747,-1.05184 -0.859896,-1.22249 -1.526903,-0.32882 -2.340206,-0.91399 -2.859251,-2.05722 -0.541836,-1.19343 -0.665384,-2.43747 -0.26655,-2.68396 0.410739,-0.25385 2.431527,0.31153 3.233982,0.90481 l 0.751715,0.55576 -0.0083,-0.86781 c -0.0045,-0.4773 -0.301588,-1.34407 -0.660104,-1.92615 -0.862182,-1.39984 -0.841825,-2.64798 0.06602,-4.04808 0.824806,-1.27205 1.085561,-1.34432 1.86151,-0.51599 1.265362,1.35079 1.442122,3.09257 0.460621,4.53889 -0.39261,0.57855 -0.661458,1.34955 -0.661458,1.89693 v 0.92221 l 0.751715,-0.55576 c 0.802455,-0.59328 2.823242,-1.15866 3.233981,-0.90481 0.398836,0.24649 0.275286,1.49053 -0.266549,2.68396 -0.519044,1.14323 -1.332349,1.7284 -2.859251,2.05722 -0.79243,0.17065 -0.859896,0.26657 -0.859896,1.22249 0,0.57052 0.06435,1.03731 0.143004,1.03731 0.07865,0 0.482981,-0.25135 0.898504,-0.55856 0.415523,-0.30721 1.303671,-0.62035 1.973662,-0.69587 1.14536,-0.1291 1.218076,-0.0997 1.216687,0.49242 -0.005,2.12852 -1.312937,3.80247 -3.207825,4.10548 -1.020675,0.16321 -1.049321,0.19636 -0.971711,1.12433 l 0.07997,0.95616 4.960938,0.072 4.960937,0.072 v -1.06417 c 0,-0.89472 -0.08594,-1.06418 -0.539707,-1.06418 -0.296839,0 -0.994828,-0.23218 -1.551091,-0.51596 -1.166048,-0.59488 -1.877952,-1.85676 -1.877952,-3.32874 v -0.98662 l 1.218163,0.13731 c 0.669991,0.0755 1.56296,0.39222 1.984375,0.70379 l 0.766212,0.56648 v -1.04523 c 0,-0.96607 -0.06512,-1.05881 -0.859896,-1.22452 -1.891519,-0.39437 -3.106195,-1.86602 -3.107864,-3.76536 -5.29e-4,-0.61846 0.08831,-1.12157 0.197448,-1.11801 0.896474,0.0292 2.689997,0.65857 3.175,1.11412 l 0.595312,0.55915 v -0.95704 c 0,-0.52637 -0.25436,-1.38814 -0.565245,-1.91506 -0.782648,-1.32649 -0.734303,-2.78273 0.136044,-4.09792 0.385712,-0.58284 0.869555,-1.05972 1.075211,-1.05972 0.524309,0 1.41461,1.20674 1.773118,2.40335 0.270097,0.9015 0.22788,1.16076 -0.396986,2.43794 -0.384575,0.78604 -0.699225,1.825 -0.699225,2.30881 v 0.87964 l 0.595418,-0.55936 c 0.771509,-0.7248 3.108836,-1.28376 3.399756,-0.81304 0.242779,0.39282 0.02774,1.68288 -0.433999,2.6037 -0.485645,0.96849 -1.169387,1.49244 -2.436696,1.86724 -1.074759,0.31786 -1.124479,0.37836 -1.124479,1.36822 v 1.03566 l 0.68008,-0.53495 c 0.74848,-0.58876 2.931146,-1.02696 3.292221,-0.66096 0.128143,0.12989 0.109884,0.78357 -0.04161,1.4896 -0.344504,1.60553 -1.476084,2.78261 -2.892862,3.00916 -0.997942,0.15958 -1.037828,0.20492 -1.037828,1.17977 v 1.01382 l 2.182812,0.0769 c 1.729735,0.0609 2.182813,0.15922 2.182813,0.47372 0,0.3477 -2.002195,0.40532 -16.159615,0.46503 -8.88779,0.0375 -16.239896,-0.0121 -16.338016,-0.11024 z"
         id="path1993" /><path
         style="fill:#000000;stroke-width:0.264583"
         d="m -102.15322,123.69996 c -0.0894,-0.23297 0.004,-0.5288 0.20674,-0.65741 0.2031,-0.1286 6.754313,-0.23565 14.55824,-0.23788 12.597765,-0.004 14.227771,0.0427 14.535068,0.41299 0.286843,0.34563 0.281064,0.4582 -0.03375,0.65741 -0.215482,0.13635 -6.594843,0.24212 -14.741811,0.24442 -12.926857,0.004 -14.378187,-0.0383 -14.524487,-0.41953 z"
         id="path1991" /><path
         style="fill:#000000;stroke-width:0.264583"
         d="m -103.53398,127.32119 c -0.20311,-0.12861 -0.29614,-0.42444 -0.20674,-0.65741 0.14658,-0.38198 1.74908,-0.42358 16.31873,-0.42358 14.569654,0 16.172154,0.0416 16.318733,0.42358 0.0894,0.23297 -0.0036,0.5288 -0.20674,0.65741 -0.482537,0.30554 -31.741453,0.30554 -32.223983,0 z"
         id="path1983" /><path
         style="fill:#000000;stroke-width:0.264583"
         d="m -102.11923,130.45271 c -0.0985,-0.15942 -0.0694,-0.39958 0.0647,-0.53368 0.14446,-0.14446 6.167496,-0.21592 14.780384,-0.17538 12.714595,0.0599 14.536571,0.11817 14.536571,0.4653 0,0.34716 -1.829139,0.40545 -14.601235,0.46526 -10.365841,0.0485 -14.6532,-0.0157 -14.78038,-0.2215 z"
         id="path1949" /></g></g></svg>
