<?xml version="1.0" encoding="UTF-8" standalone="no"?>
<!-- Created with Inkscape (http://www.inkscape.org/) -->

<svg
   width="3381.0378"
   height="1400.1222"
   viewBox="0 0 894.56624 370.44899"
   version="1.1"
   id="svg1155"
   inkscape:version="1.2.2 (732a01da63, 2022-12-09)"
   sodipodi:docname="logo.svg"
   xml:space="preserve"
   xmlns:inkscape="http://www.inkscape.org/namespaces/inkscape"
   xmlns:sodipodi="http://sodipodi.sourceforge.net/DTD/sodipodi-0.dtd"
   xmlns="http://www.w3.org/2000/svg"
   xmlns:svg="http://www.w3.org/2000/svg"><sodipodi:namedview
     id="namedview1157"
     pagecolor="#505050"
     bordercolor="#eeeeee"
     borderopacity="1"
     inkscape:showpageshadow="0"
     inkscape:pageopacity="0"
     inkscape:pagecheckerboard="0"
     inkscape:deskcolor="#505050"
     inkscape:document-units="px"
     showgrid="false"
     inkscape:zoom="0.26110523"
     inkscape:cx="1796.2107"
     inkscape:cy="811.93317"
     inkscape:window-width="1920"
     inkscape:window-height="1009"
     inkscape:window-x="3832"
     inkscape:window-y="1063"
     inkscape:window-maximized="1"
     inkscape:current-layer="layer1" /><defs
     id="defs1152" /><g
     inkscape:label="Layer 1"
     inkscape:groupmode="layer"
     id="layer1"
     transform="translate(428.12888,201.36905)"><path
       style="fill:#006187;fill-opacity:1;stroke-width:0.264583"
       d="m -56.188317,-15.801615 c -9.99503,-10.43869 -16.64341,-19.84891 -22.31134,-31.57976 -9.97534,-20.64597 -13.611642,-44.15335 -10.31721,-66.697245 l 0.18193,-1.24507 5.98492,-3.1559 c 25.40207,-13.39477 49.63687,-28.67656 66.55465,-41.96753 6.10893,-4.79929 10.34896,-8.4964 15.26849039,-13.31336 10.07861001,-9.8685 15.61882961,-17.93099 17.56121961,-25.55624 0.33858,-1.32926 0.67746,-2.23824 0.75303,-2.01996 0.0756,0.21828 0.38478,1.40891 0.68712,2.64583 1.0383,4.24765 4.28667,10.01294 9.00615,15.98433 5.67579,7.18138 16.28087,16.86856 28.44591,25.98379 16.64592,12.47275 45.227927,30.03792 64.955207,39.91842 1.38245,0.69241 2.58839,1.37649 2.67989,1.52018 0.32861,0.51613 1.03346,6.7871 1.32842,11.81877 0.60412,10.305535 -0.5723,22.469875 -3.21387,33.231745 -4.96607,20.2322 -14.96407,38.259 -29.600497,53.37096 -1.80057,1.85907 -3.34838,3.37831 -3.43958,3.37609 -0.0912,-0.003 -0.32996,-0.10803 -0.53059,-0.23511 -0.27882,-0.17658 0.26148,-0.95576 2.29301,-3.30666 10.933237,-12.65208 17.678817,-25.12689 20.344067,-37.62293 0.67193,-3.15039 0.72877,-3.88269 0.73726,-9.49896 0.01,-6.50862 -0.18402,-8.02308 -1.62552,-12.7 -1.52665,-4.95309 -5.93185,-12.34405 -9.25425,-15.52656 -0.775467,-0.74283 -81.426397,-48.804365 -82.794737,-49.339085 -0.15716,-0.0614 -4.97919,2.67331 -10.7156296,6.07719 -9.3824404,5.56736 -31.2559404,18.53991 -48.2652604,28.62477 -3.4925,2.07072 -10.21953,6.05379 -14.94896,8.851275 -4.73051,2.79813 -8.93154,5.46289 -9.3382,5.92334 -8.26694,9.35981 -11.82341,19.70164 -10.8195,31.46178 1.24833,14.62297 8.50982,29.38649 22.08942,44.91036 1.63703,1.87142 1.80729,2.36691 0.81799,2.38059 -0.16116,0.003 -1.29225,-1.03955 -2.51354,-2.31505 z"
       id="path376" /><path
       style="fill:#006187;fill-opacity:1;stroke-width:0.264583"
       d="m -31.978307,-4.5664848 c -12.24423,-12.8596502 -19.21762,-28.3425102 -20.75863,-46.0899902 -0.35438,-4.08117 -0.17285,-11.78112 0.3615,-15.3344 l 0.31658,-2.10522 4.23333,-2.22233 c 22.44574,-11.78311 43.03731,-25.80159 54.0726004,-36.811915 5.5724696,-5.55989 9.6562096,-11.61575 10.7151296,-15.88967 l 0.36054,-1.45521 0.19725,0.92604 c 0.67109,3.15082 3.23802,7.80695 6.47806,11.75047 9.54336,11.61539 30.90344,26.846035 57.85493,41.253035 5.50839,2.94453 4.86236,2.02399 5.41684,7.71836 0.41675,4.27996 0.16092,12.76514 -0.51855,17.19792 -2.40636,15.69903 -9.36154,29.86302 -20.09685,40.9265202 -1.70151,1.75352 -2.88304,2.77267 -3.11243,2.68464 -0.26159,-0.10038 0.0632,-0.61756 1.11035,-1.76818 2.39996,-2.63707 6.02308,-7.5926402 8.02677,-10.9787002 5.6048,-9.47155 7.56063,-18.97853 5.56033,-27.02782 -0.75714,-3.04674 -3.0243,-7.6058 -5.02743,-10.10972 l -1.63195,-2.03993 -27.06225,-16.01788 c -14.88424,-8.80984 -27.12506,-16.01789 -27.20179,-16.01789 -0.0767,0 -3.33496,1.88869 -7.24053,4.19709 -3.9055696,2.3084 -11.0896096,6.55462 -15.96456,9.43605 -4.87495,2.88142 -12.07823,7.14223 -16.00729,9.46845 -3.92907,2.32623 -8.88106,5.25352 -11.00442,6.5051 -4.20156,2.47654 -5.15205,3.35957 -7.43347,6.90581 -2.7599,4.29003 -3.98968,8.6518 -3.99103,14.15521 0,3.99079 0.47072,6.83469 1.81343,10.93356 2.1472,6.55484 6.45189,13.72582 12.18689,20.3015602 1.20634,1.38316 1.56676,1.9576 1.29395,2.06227 -0.2408,0.0924 -1.31109,-0.83476 -2.9473,-2.55323 z"
       id="path374" /><path
       style="fill:#006187;fill-opacity:1;stroke-width:0.264583"
       d="m 109.46926,2.9842152 c 5.03518,-4.05595 8.95093,-9.38011 14.37129,-19.5402402 2.81469,-5.27598 9.373,-19.33885 9.11765,-19.5508 -0.27088,-0.22485 -4.89939,-2.74901 -7.89472,-4.3054 l -3.58806,-1.86437 1.95077,-2.60244 c 1.07294,-1.43134 2.49177,-3.39374 3.15296,-4.36088 l 1.20219,-1.75843 2.55177,1.12988 c 6.29981,2.78945 12.12967,4.17101 17.77151,4.2115 l 3.84265,0.0276 -1.19682,0.95072 c -1.57475,1.25096 -3.05136,2.87998 -5.03269,5.55222 -3.13211,4.2243 -4.02746,5.91887 -13.40935,25.37935 -3.40254,7.0577602 -6.39119,13.02683016 -6.64144,13.26461016 -0.2753,0.26157 -3.27641,1.07992 -7.59875,2.07209004 -3.92906,0.90185 -7.73906,1.80041 -8.46667,1.99673 l -1.32292,0.35697 z"
       id="path372" /><path
       style="fill:#006187;fill-opacity:1;stroke-width:0.264583"
       d="m -82.086797,1.9647552 c -5.55654,-1.30953004 -8.47704,-2.11622004 -8.76715,-2.42163004 -0.23929,-0.25185 -3.714222,-7.27904996 -7.722052,-15.61599016 -4.007831,-8.33692 -8.086171,-16.4927 -9.062961,-18.12396 -3.13341,-5.23281 -6.55476,-9.37043 -9.2152,-11.14436 l -1.03074,-0.68727 0.89845,0.19949 c 1.66521,0.36974 7.15555,0.1999 9.89425,-0.30608 3.28808,-0.60748 8.430711,-2.23263 11.819601,-3.73519 l 2.57236,-1.14052 0.7965,1.24125 c 0.4381,0.68268 1.813562,2.59856 3.056632,4.25751 1.24306,1.65895 2.25594,3.0851 2.25081,3.16923 -0.005,0.0841 -2.41615,1.43423 -5.357822,3.00024 -2.94166,1.56602 -5.50669,2.94804 -5.70002,3.07118 -0.42585,0.27122 2.40607,6.79116 6.579422,15.14779 6.41517,12.8456302 10.83987,19.3489802 16.20927,23.8241102 0.84432,0.70369 1.43963,1.26783 1.32292,1.25365 -0.11668,-0.014 -3.9616,-0.90942 -8.54427,-1.98945 z"
       id="path370" /><path
       style="fill:#006187;fill-opacity:1;stroke-width:0.264583"
       d="m -16.013327,7.1997752 c -1.2755,-1.40708 -2.92473,-3.39178 -3.66498,-4.41042 -6.53674,-8.99499 -9.88351,-20.0190602 -9.39792,-30.9562502 0.26482,-5.96471 0.16388,-5.67544 2.37863,-6.81633 3.62392,-1.86676 11.27866,-6.26301 15.69731,-9.01521 8.70161,-5.41991 15.1779804,-10.27694 20.1537604,-15.11455 4.4099896,-4.28754 6.6747496,-7.4252 7.7418696,-10.72578 0.25876,-0.80037 0.47969,-1.21709 0.49098,-0.92605 0.0362,0.93331 1.20526,3.44409 2.53511,5.44445 5.30558,7.98077 20.945,19.51859 40.52721,29.89857 2.70484,1.43378 2.70544,1.43431 2.91042,2.62469 0.34369,1.9962 0.23783,11.83947 -0.15084,14.02292 -1.53985,8.65066 -4.67969,15.9979002 -9.56451,22.3811002 -1.69997,2.22144 -5.5482,6.29166 -5.75397,6.08592 -0.0674,-0.0674 0.59941,-0.96128 1.48174,-1.98647 3.57114,-4.14922 6.49796,-9.31489 7.88295,-13.91284 0.63172,-2.0973 0.71749,-2.82295 0.71927,-6.0854202 0.003,-3.32846 -0.0683,-3.90102 -0.69086,-5.64486 -0.82489,-2.31039 -2.05565,-4.41079 -3.50715,-5.98524 -0.79963,-0.86736 -5.35059,-3.68414 -18.55126,-11.48218 -9.62041,-5.68308 -17.60874,-10.36819 -17.7518,-10.41134 -0.29271,-0.0883 -4.22383,2.20394 -29.71736,17.32818 -7.21027,4.27752 -7.76269,4.77923 -9.69198,8.80147 -3.61813,7.54314 -0.96415,17.8476802 7.02828,27.2886202 0.88607,1.04667 1.61102,1.9694 1.61102,2.05052 0,0.4215398 -0.60621,-0.1261 -2.71592,-2.4535 z"
       id="path368" /><path
       style="fill:#006187;fill-opacity:1;stroke-width:0.264583"
       d="m 129.47187,17.586075 c 4.85312,-2.74101 9.48997,-6.97246 12.80572,-11.6861398 7.65903,-10.88806 15.95697,-28.9698902 23.56197,-51.3433902 1.71937,-5.05823 1.81052,-5.43975 1.37663,-5.76139 -1.15674,-0.85752 -12.28315,-7.43052 -16.33964,-9.65277 -2.47385,-1.35525 -7.17682,-3.76913 -10.45104,-5.36419 -3.27422,-1.59507 -5.99832,-2.93793 -6.05353,-2.98414 -0.0552,-0.0462 0.20687,-1.07071 0.58242,-2.27667 0.99518,-3.1956 2.70336,-9.95078 3.3645,-13.30516 0.31551,-1.60073 0.60531,-2.94442 0.64399,-2.98598 0.0387,-0.0416 1.96117,1.00672 4.2722,2.32951 4.62743,2.64866 15.71279,8.20099 20.47375,10.25471 6.53053,2.81706 14.09745,5.09925 20.50521,6.18443 5.48627,0.92911 13.94934,0.84123 18.25625,-0.18957 0.29104,-0.0697 -0.0568,0.17278 -0.77303,0.53876 -4.10946,2.09991 -10.4833,8.45468 -15.05067,15.00564 -3.22008,4.61855 -6.65511,10.84415 -9.16381,16.60841 -1.82208,4.18656 -23.38203,49.88179 -23.70257,50.23636 -0.24998,0.27651 -25.11359,5.59395 -26.187,5.60046 -0.14552,0 0.69987,-0.54311 1.87865,-1.20888 z"
       id="path366" /><path
       style="fill:#006187;fill-opacity:1;stroke-width:0.264583"
       d="m -106.11676,16.153385 c -6.88507,-1.42658 -12.56408,-2.63954 -12.62002,-2.69547 -0.18745,-0.18746 -22.13435,-46.86401 -23.98799,-51.01757 -6.34365,-14.21449 -15.4981,-26.14931 -23.70749,-30.90785 -0.83275,-0.4827 -1.27598,-0.81529 -0.98494,-0.73908 3.95256,1.03494 12.76022,1.13212 18.25625,0.20143 6.41202,-1.0858 13.98818,-3.37135 20.50521,-6.18595 4.90225,-2.1172 15.92847,-7.64115 20.46809,-10.25417 2.3079,-1.32844 4.22555,-2.37881 4.26143,-2.33414 0.0358,0.0447 0.43754,1.92954 0.89262,4.18859 0.45511,2.25906 1.48681,6.4254 2.29267,9.25854 0.880961,3.09716 1.355621,5.1877 1.190361,5.24278 -0.15115,0.0504 -3.576741,1.74095 -7.612401,3.75681 -8.46834,4.23002 -16.3761,8.67641 -23.74173,13.34952 -0.87312,0.55395 -1.61756,1.02976 -1.65431,1.05734 -0.10877,0.0816 3.1868,9.6859 5.04034,14.6891 4.84095,13.06703 10.14662,25.03649 14.62651,32.9971102 6.26629,11.13499 10.3233,15.7832198 17.945031,20.5599798 1.2955,0.81192 2.12894,1.46513 1.85208,1.45153 -0.27686,-0.0135 -6.13664,-1.19192 -13.021711,-2.6185 z"
       id="path364" /><path
       style="fill:#ffffff;fill-opacity:1;stroke-width:0.264583"
       d="m -392.07697,105.10546 c -17.7941,-33.863685 -33.18518,-63.147905 -34.20241,-65.076055 l -1.8495,-3.50573 22.03157,0.0132 22.03158,0.0132 -2.47481,0.8985 c -1.36115,0.49419 -3.46548,1.39621 -4.6763,2.00448 -2.21082,1.11062 -5.52077,3.44358 -6.02821,4.24887 -0.21373,0.33917 3.36564,8.06079 16.74143,36.11562 9.35731,19.62632 17.1517,35.956035 17.32087,36.288245 0.27864,0.54716 2.17928,-2.91377 20.19683,-36.777085 10.93908,-20.55961 20.29176,-38.13265 20.78372,-39.05123 l 0.89448,-1.67013 20.59818,38.77794 c 11.32901,21.32785 20.67459,38.777925 20.76795,38.777925 0.0934,0 7.7575,-16.222275 17.0314,-36.049485 l 16.86162,-36.04948 -1.46409,-1.34141 c -1.83352,-1.6799 -5.09644,-3.54047 -8.36245,-4.7684 -1.38244,-0.51978 -2.75166,-1.04627 -3.04271,-1.17002 -0.29682,-0.1262 9.20409,-0.23286 21.63846,-0.24288 l 22.16761,-0.0179 -1.9675,3.77032 c -1.53249,2.93669 -62.18604,121.116595 -64.38045,125.441545 l -0.51815,1.02121 -19.92862,-37.06198 c -10.96074,-20.38411 -20.01872,-37.006325 -20.12884,-36.938245 -0.11013,0.068 -8.50236,16.553475 -18.6494,36.634245 -10.14705,20.08079 -18.58196,36.68476 -18.74427,36.89772 -0.23435,0.30755 -6.95425,-12.28568 -32.64799,-61.18303 z"
       id="path362" /><path
       style="fill:#ffffff;fill-opacity:1;stroke-width:0.264583"
       d="m 422.64885,168.30409 c 4.02966,-1.40118 7.90403,-3.51587 10.29116,-5.617 l 1.03073,-0.90725 -17.4349,-36.54491 c -9.58919,-20.09968 -17.51536,-36.465355 -17.61371,-36.368175 -0.15438,0.15261 -30.27725,56.791365 -38.47058,72.334625 -1.58961,3.01561 -2.95568,5.48615 -3.03569,5.4901 -0.08,0.004 -9.40753,-17.40569 -20.72778,-38.68811 -11.32025,-21.28242 -20.66417,-38.782125 -20.76426,-38.888195 -0.10012,-0.1061 -3.19789,6.32327 -6.88396,14.287505 -3.68609,7.96419 -6.78378,14.56925 -6.88379,14.67789 -0.10002,0.10864 -2.93939,-6.39315 -6.30973,-14.44842 l -6.12791,-14.645965 14.02233,-25.22778 c 7.71229,-13.87528 14.05562,-25.26107 14.09629,-25.30173 0.0407,-0.0407 9.10254,16.72 20.13749,37.24597 l 20.06349,37.319965 0.89659,-1.67082 c 0.49313,-0.91895 9.42512,-17.654965 19.84886,-37.191135 10.42376,-19.53617 19.02131,-35.51986 19.10569,-35.5193 0.15856,0 68.54822,129.969565 68.54822,130.269865 0,0.0928 -10.32867,0.15973 -22.9526,0.14878 l -22.9526,-0.0198 2.11666,-0.736 z"
       id="path358" /><path
       style="fill:#ffffff;fill-opacity:1;stroke-width:0.264583"
       d="M -11.664699,102.80186 V 36.523725 h 46.69896 46.698961 v 10.71563 10.71562 H 47.469681 13.206132 v 19.31459 19.31458 h 22.977739 c 21.55251,0 23.00293,-0.0287 23.38372,-0.46302 0.68405,-0.78015 1.3413,-2.24798 1.64026,-3.66302 l 0.28474,-1.34792 6.48229,13.489065 c 3.565261,7.419 6.512061,13.56196 6.548471,13.65105 0.0364,0.0891 -13.745111,0.13123 -30.625521,0.0936 l -30.691699,-0.0683 v 21.93459 21.9346 l 1.91823,1.46036 c 2.21875,1.68915 5.40388,3.34822 8.7974,4.58239 l 2.38125,0.86601 -18.9838594,0.0132 -18.9838516,0.0132 v -66.27812 z"
       id="path354" /><path
       style="fill:#ffffff;fill-opacity:1;stroke-width:0.264583"
       d="m -53.410821,168.74924 c -0.14922,-0.1819 -11.24201,-15.33259 -24.65064,-33.66821 l -24.379339,-33.33751 14.894826,-0.15766 c 12.529223,-0.13264 15.188953,-0.22707 16.746903,-0.59457 5.37318,-1.267465 7.9435,-2.631155 11.24968,-5.968505 3.75208,-3.78748 5.12075,-7.14372 5.53114,-13.56341 0.5125,-8.0168 -1.1236,-13.09754 -5.65179,-17.55127 -2.50256,-2.46139 -4.30702,-3.6 -7.38857,-4.66217 -4.19079,-1.44449 -5.84004,-1.55226 -23.782032,-1.55398 l -16.337387,-0.003 -0.0668,55.564745 -0.0668,55.56472 -11.8401,-24.742 -11.8401,-24.74201 V 77.913105 36.491445 l 27.45052,0.106 c 29.372729,0.11342 29.468219,0.11739 36.975509,1.52839 11.49882,2.16122 19.39192,5.43906 26.54228,11.02246 5.70902,4.45794 8.79814,8.62267 10.79342,14.55161 2.38887,7.09858 2.81493,17.22286 1.04976,24.94566 -3.31907,14.521315 -13.41602,24.513145 -30.24952,29.934585 -1.49159,0.48038 -2.71042,0.93655 -2.70852,1.0137 0.007,0.26437 31.24526,42.20808 32.09166,43.08887 1.86931,1.94529 6.07721,4.28974 10.250012,5.71084 l 1.97258,0.67181 -18.157722,0.007 c -14.21173,0.005 -18.21667,-0.0651 -18.42903,-0.32395 z"
       id="path352" /><path
       style="fill:#ffffff;fill-opacity:1;stroke-width:0.264583"
       d="m -257.96013,165.83883 c 1.56875,-3.1324 9.72044,-19.12394 44.94584,-88.172395 9.13129,-17.89906 17.37651,-34.07463 18.32271,-35.94571 l 1.72035,-3.40193 1.3318,2.47589 c 3.08453,5.73439 67.52682,128.034755 67.52682,128.154295 0,0.072 -10.3882,0.12795 -23.08489,0.12422 l -23.0849,-0.007 1.96321,-0.66866 c 4.10964,-1.39967 8.43568,-3.82175 10.32611,-5.78141 l 0.9122,-0.94561 -0.54724,-1.25635 c -0.92919,-2.13323 -35.04505,-72.947555 -35.23226,-73.131685 -0.0969,-0.0953 -8.32718,16.620995 -18.2895,37.147295 l -18.11332,37.32054 1.04769,0.92166 c 2.37891,2.09283 5.45848,3.83485 9.51436,5.38203 l 2.64584,1.00927 -21.76402,0.008 -21.76402,0.008 1.62322,-3.24115 z"
       id="path350" /><path
       style="fill:#ffffff;fill-opacity:1;stroke-width:0.264583"
       d="m 260.7186,168.74924 c -0.14922,-0.1819 -11.24201,-15.33259 -24.65064,-33.66821 l -24.37935,-33.33751 14.89483,-0.15766 c 12.52923,-0.13264 15.18896,-0.22707 16.74691,-0.59457 5.37318,-1.267465 7.9435,-2.631155 11.24968,-5.968505 3.75208,-3.78748 5.12075,-7.14372 5.53114,-13.56341 0.5125,-8.0168 -1.1236,-13.09754 -5.65179,-17.55127 -2.50256,-2.46139 -4.30702,-3.6 -7.38857,-4.66217 -4.19079,-1.44449 -5.84004,-1.55226 -23.78204,-1.55398 l -16.33739,-0.003 -0.0668,55.564745 -0.0668,55.56472 -11.8401,-24.742 -11.8401,-24.74201 V 77.913105 36.491445 l 27.45052,0.106 c 29.37274,0.11342 29.46823,0.11739 36.97552,1.52839 11.49882,2.16122 19.39192,5.43906 26.54228,11.02246 5.70902,4.45794 8.79814,8.62267 10.79342,14.55161 2.38887,7.09858 2.81493,17.22286 1.04976,24.94566 -3.31907,14.521315 -13.41602,24.513145 -30.24952,29.934585 -1.49159,0.48038 -2.71042,0.93655 -2.70852,1.0137 0.007,0.26437 31.24526,42.20808 32.09166,43.08887 1.86931,1.94529 6.07721,4.28974 10.25001,5.71084 l 1.97258,0.67181 -18.15772,0.007 c -14.21173,0.005 -18.21667,-0.0651 -18.42903,-0.32395 z"
       id="path1622" /><path
       style="fill:#ffffff;fill-opacity:1;stroke-width:0.264583"
       d="m 56.169266,165.83883 c 1.56875,-3.1324 9.72044,-19.12394 44.945844,-88.172395 9.13129,-17.89906 17.37651,-34.07463 18.32271,-35.94571 l 1.72036,-3.40193 1.3318,2.47589 c 3.08453,5.73439 67.52682,128.034755 67.52682,128.154295 0,0.072 -10.3882,0.12795 -23.08489,0.12422 l -23.0849,-0.007 1.96321,-0.66866 c 4.10964,-1.39967 8.43568,-3.82175 10.32611,-5.78141 l 0.9122,-0.94561 -0.54724,-1.25635 c -0.92919,-2.13323 -35.04505,-72.947555 -35.23226,-73.131685 -0.0969,-0.0953 -8.32719,16.620995 -18.28951,37.147295 l -18.113324,37.32054 1.04769,0.92166 c 2.37891,2.09283 5.45848,3.83485 9.51436,5.38203 l 2.64584,1.00927 -21.76402,0.008 -21.76402,0.008 1.62322,-3.24115 z"
       id="path1624" /></g></svg>
