<?xml version="1.0" encoding="UTF-8" standalone="no"?>
<!-- Created with Inkscape (http://www.inkscape.org/) -->

<svg
   width="128"
   height="128"
   viewBox="0 0 33.866666 33.866666"
   version="1.1"
   id="svg1155"
   inkscape:version="1.2.2 (732a01da63, 2022-12-09)"
   sodipodi:docname="question.svg"
   xml:space="preserve"
   xmlns:inkscape="http://www.inkscape.org/namespaces/inkscape"
   xmlns:sodipodi="http://sodipodi.sourceforge.net/DTD/sodipodi-0.dtd"
   xmlns="http://www.w3.org/2000/svg"
   xmlns:svg="http://www.w3.org/2000/svg"><sodipodi:namedview
     id="namedview1157"
     pagecolor="#505050"
     bordercolor="#eeeeee"
     borderopacity="1"
     inkscape:showpageshadow="0"
     inkscape:pageopacity="0"
     inkscape:pagecheckerboard="0"
     inkscape:deskcolor="#505050"
     inkscape:document-units="px"
     showgrid="false"
     inkscape:zoom="0.5"
     inkscape:cx="-245"
     inkscape:cy="-146"
     inkscape:window-width="1920"
     inkscape:window-height="1009"
     inkscape:window-x="3832"
     inkscape:window-y="1063"
     inkscape:window-maximized="1"
     inkscape:current-layer="layer1" /><defs
     id="defs1152" /><g
     inkscape:label="Layer 1"
     inkscape:groupmode="layer"
     id="layer1"><path
       style="fill:#000000;stroke-width:0.0553722"
       d="m 15.323906,33.806688 c -0.747646,-0.182243 -1.30501,-0.512045 -1.85975,-1.100432 -0.679231,-0.720428 -0.977213,-1.482112 -0.979094,-2.502686 -0.0024,-1.337174 0.576173,-2.377531 1.741145,-3.130488 0.707664,-0.457386 1.804631,-0.654202 2.646173,-0.474772 1.414271,0.301538 2.584691,1.439323 2.9128,2.831581 0.194963,0.827307 0.0156,1.866142 -0.4563,2.645151 -0.259554,0.428318 -0.89118,1.059826 -1.302751,1.30251 -0.573239,0.338007 -1.047575,0.469269 -1.760895,0.487285 -0.398698,0.01004 -0.750645,-0.01181 -0.941328,-0.05814 z m -1.467362,-9.843574 c -0.243901,-0.08474 -0.567205,-0.418691 -0.672665,-0.694828 -0.08062,-0.21111 -0.0878,-0.409253 -0.05742,-1.581161 0.06754,-2.604289 0.334211,-3.97926 1.038403,-5.354298 0.50673,-0.989467 1.318535,-1.838475 2.579105,-2.697299 2.182913,-1.487214 2.88136,-2.142611 3.395973,-3.186668 C 20.662943,9.3877958 20.658823,8.0715456 20.12934,7.0682836 19.8666,6.5704167 19.220914,5.9454261 18.701595,5.6862985 18.107173,5.3896925 17.522503,5.2549744 16.818942,5.2525005 c -0.747467,-0.0026 -1.272325,0.1145816 -1.938031,0.432786 -0.441898,0.2112289 -0.597018,0.3234024 -0.969831,0.7013257 -0.50381,0.5107191 -0.765348,0.9599213 -0.987493,1.6960694 -0.150142,0.4975509 -0.370861,0.784073 -0.71699,0.9307529 -0.111101,0.04708 -0.809125,0.065621 -2.469198,0.065621 H 7.4231009 L 7.1790596,8.9502177 C 7.0448376,8.8793567 6.8602672,8.7151644 6.7689019,8.5853507 6.6169197,8.3693876 6.6034395,8.3132529 6.6103196,7.9251335 6.6249198,7.095422 6.9492264,5.9447681 7.4629215,4.8984536 8.6108494,2.5603132 10.920836,0.91200442 13.939586,0.27697558 c 1.999923,-0.42070582 4.64751,-0.35564892 6.630671,0.16292225 1.882647,0.49229485 3.247379,1.23952917 4.448259,2.43556777 1.172555,1.1678182 1.784987,2.314468 2.109854,3.9502347 0.162582,0.8187233 0.175423,2.4946125 0.02532,3.3054217 -0.295016,1.593401 -0.990446,2.895419 -2.192128,4.104226 -0.710796,0.71501 -1.353959,1.211731 -2.550016,1.969401 -0.916912,0.580839 -1.573616,1.091287 -1.989746,1.546599 -1.027601,1.124357 -1.441825,2.385863 -1.443315,4.395546 -4.17e-4,0.472049 -0.02828,0.957858 -0.06208,1.079576 -0.0802,0.288911 -0.452112,0.660819 -0.741022,0.741024 -0.291094,0.08081 -4.084697,0.07696 -4.31885,-0.0044 z"
       id="path3154" /></g></svg>
