<?xml version="1.0" encoding="UTF-8" standalone="no"?>
<!-- Created with Inkscape (http://www.inkscape.org/) -->

<svg
   width="128"
   height="128"
   viewBox="0 0 33.866666 33.866666"
   version="1.1"
   id="svg1155"
   inkscape:version="1.2.2 (732a01da63, 2022-12-09)"
   sodipodi:docname="reddit.svg"
   xml:space="preserve"
   xmlns:inkscape="http://www.inkscape.org/namespaces/inkscape"
   xmlns:sodipodi="http://sodipodi.sourceforge.net/DTD/sodipodi-0.dtd"
   xmlns="http://www.w3.org/2000/svg"
   xmlns:svg="http://www.w3.org/2000/svg"><sodipodi:namedview
     id="namedview1157"
     pagecolor="#505050"
     bordercolor="#eeeeee"
     borderopacity="1"
     inkscape:showpageshadow="0"
     inkscape:pageopacity="0"
     inkscape:pagecheckerboard="0"
     inkscape:deskcolor="#505050"
     inkscape:document-units="px"
     showgrid="false"
     inkscape:zoom="2"
     inkscape:cx="51.5"
     inkscape:cy="109.5"
     inkscape:window-width="1920"
     inkscape:window-height="1009"
     inkscape:window-x="3832"
     inkscape:window-y="1064"
     inkscape:window-maximized="1"
     inkscape:current-layer="layer1" /><defs
     id="defs1152" /><g
     inkscape:label="Layer 1"
     inkscape:groupmode="layer"
     id="layer1"><g
       id="g3450"
       transform="matrix(0.32071285,0,0,0.32071285,-12.357487,-33.490803)"><circle
         style="fill:#ffffff;fill-opacity:1;stroke-width:1.81769;stroke-linecap:round;stroke-linejoin:round"
         id="path1008"
         cx="90.945526"
         cy="155.79805"
         r="46.612751" /><path
         style="fill:#ff4500;fill-opacity:1;stroke-width:0.264583"
         d="m 44.746923,209.60698 c -0.563242,-0.2866 -1.120816,-0.87004 -1.4232,-1.48924 -0.881317,-1.80467 -0.544639,-2.32056 5.363036,-8.21784 l 5.276414,-5.26712 -1.766756,-2.00892 c -7.302799,-8.30377 -11.515613,-17.25114 -13.154472,-27.93809 -0.598983,-3.90595 -0.598983,-11.1753 0,-15.08125 2.66396,-17.37158 13.147278,-31.89883 28.591435,-39.62054 7.740409,-3.87002 14.928575,-5.5568 23.680208,-5.5568 8.728132,0 15.955262,1.69139 23.617472,5.52728 12.02975,6.02237 21.20269,16.25521 25.93746,28.93444 3.61604,9.68338 4.1977,21.04934 1.60451,31.35312 -1.87057,7.43254 -5.72024,14.87267 -10.89014,21.04698 -6.8437,8.1733 -16.79425,14.40433 -27.17243,17.01537 -6.366018,1.60162 -5.951982,1.58082 -33.469788,1.68143 -23.814185,0.0871 -25.320978,0.0653 -26.193749,-0.37882 z m 51.102695,-17.28724 c 9.469762,-0.96624 17.520512,-4.44673 23.447332,-10.13671 3.96537,-3.80691 6.36146,-8.20547 7.17963,-13.17981 0.39651,-2.41073 0.46819,-2.58455 1.21616,-2.94902 1.99064,-0.97001 4.45781,-3.89681 5.30216,-6.28997 1.72098,-4.87776 0.52248,-9.95997 -3.16146,-13.40612 -0.93436,-0.87404 -2.33379,-1.8865 -3.10986,-2.24991 -3.74285,-1.75268 -8.02972,-1.62143 -11.5328,0.3531 l -1.39053,0.78377 -2.9751,-1.45078 c -4.84313,-2.3617 -10.0547,-3.79595 -15.472015,-4.25798 -1.853443,-0.15807 -2.202066,-0.12347 -2.338501,0.23207 -0.410837,1.07063 -2.902429,1.07262 -3.68459,0.003 -0.272156,-0.37219 -0.618855,-0.38435 -3.064269,-0.10743 -5.254617,0.59503 -9.817928,1.908 -14.450496,4.15774 l -2.961855,1.43838 -1.40377,-0.79125 c -3.516718,-1.98222 -7.797515,-2.11591 -11.546057,-0.36057 -0.776069,0.36341 -2.175505,1.37587 -3.109858,2.24991 -3.713354,3.47367 -4.936719,8.80368 -3.101147,13.51123 0.995515,2.55312 3.276979,5.2282 5.297389,6.21135 0.726357,0.35344 0.872586,0.59055 1.002844,1.6261 0.301117,2.39386 0.997062,4.94972 1.859412,6.82869 5.490664,11.96357 21.519287,19.46559 37.997381,17.78426 z m -6.520405,-8.90108 c -3.793519,-0.50437 -7.740626,-3.09709 -9.980644,-6.55594 -1.377786,-2.12745 -1.323726,-3.08492 0.191061,-3.38397 1.928355,-0.3807 16.974624,-0.54432 20.76206,-0.22577 4.58641,0.38575 4.69741,0.47628 3.47498,2.83401 -2.62167,5.05649 -8.629362,8.10523 -14.447457,7.33167 z M 71.597212,168.94727 c -1.052971,-0.45881 -2.366778,-1.98166 -2.800938,-3.24662 -0.419036,-1.22088 -0.425801,-3.78624 -0.01389,-5.26387 0.969698,-3.47844 4.346897,-5.72958 7.379006,-4.91861 1.69295,0.45279 2.713141,1.28956 3.638384,2.98422 0.65928,1.20754 0.791921,1.78393 0.883383,3.83874 0.16075,3.61142 -0.67685,5.42922 -2.984675,6.47753 -1.287997,0.58505 -4.879967,0.66077 -6.101281,0.12861 z m 5.942478,-1.43036 c 0.948698,-0.70616 1.232024,-1.63931 0.77874,-2.56481 -1.417148,-2.8935 -6.655713,-2.4875 -7.265834,0.56312 -0.206288,1.03144 0.70417,2.15842 2.008928,2.48669 1.382975,0.34794 3.695642,0.0975 4.478166,-0.485 z m 0.809315,-6.40301 c 1.061352,-1.06135 0.421817,-2.64583 -1.067922,-2.64583 -1.322382,0 -1.842304,1.98073 -0.725289,2.76312 0.777163,0.54434 1.15638,0.51954 1.793211,-0.11729 z m 27.058025,7.9195 c -1.2438,-0.37719 -2.86993,-2.04102 -3.21478,-3.28929 -0.41831,-1.51417 -0.36328,-4.30534 0.11674,-5.92174 0.52891,-1.78105 2.42367,-3.80824 3.99337,-4.2725 1.52861,-0.4521 3.26431,-0.1315 4.77943,0.8828 0.96928,0.64888 1.47627,1.26639 2.18642,2.66301 0.82972,1.63177 0.92492,2.0388 0.92819,3.96875 0.005,2.68666 -0.70433,4.33693 -2.32354,5.40911 -0.92969,0.61562 -1.37447,0.71742 -3.34138,0.76472 -1.24791,0.03 -2.65392,-0.0622 -3.12445,-0.20486 z m 5.21187,-1.43241 c 2.49447,-1.28995 0.47764,-4.63501 -2.79458,-4.63501 -2.70213,0 -4.64591,2.57957 -3.17146,4.20882 0.96541,1.06676 4.27071,1.30288 5.96604,0.42619 z m 0.21498,-6.3698 c 0.40213,-0.28166 0.58804,-0.68318 0.58804,-1.27 0,-1.02617 -0.40307,-1.49312 -1.28885,-1.49312 -1.45453,0 -2.12188,1.61635 -1.0924,2.64583 0.63683,0.63683 1.01605,0.66163 1.79321,0.11729 z m 2.64376,-25.67991 c 1.84044,-0.59439 3.74279,-2.11137 4.74588,-3.78448 2.7629,-4.6084 1.00578,-10.33656 -3.89118,-12.68518 -1.9529,-0.93663 -5.29806,-0.99413 -7.19023,-0.12361 -2.29741,1.05696 -4.33054,3.37675 -4.99741,5.702 -0.20874,0.72783 -0.19874,0.73514 1.00663,0.73514 0.76157,0 1.39865,0.16397 1.70132,0.43788 0.48618,0.43999 0.64967,1.8152 0.28137,2.36678 -0.32808,0.49134 -1.30883,0.8995 -2.16137,0.8995 -1.00775,0 -1.03403,0.37151 -0.14971,2.11662 1.0788,2.12892 3.08901,3.80229 5.42398,4.51513 1.16078,0.35437 3.86456,0.26144 5.23072,-0.17978 z"
         id="path299" /><path
         style="fill:#000000;fill-opacity:1;stroke-width:1.81769;stroke-linecap:round;stroke-linejoin:round"
         d="m 93.225502,139.52159 c -0.416804,2.0416 -4.0841,2.02615 -3.926617,-0.0633 0.573756,-7.61244 8.488201,-13.80199 12.793175,-14.07069 1.47524,-0.0921 3.2238,-0.14693 3.27602,1.71248 0.0651,2.31843 -2.56062,2.35605 -3.14936,2.415 -4.119795,0.41251 -8.21182,6.17905 -8.993218,10.00651 z"
         id="path1064"
         sodipodi:nodetypes="ssssss" /><path
         style="fill:#ff6100;fill-opacity:1;stroke-width:0.279165"
         d="m 77.685419,167.54727 c 1.000986,-0.74508 1.299931,-1.72966 0.821659,-2.70617 -1.495244,-3.05297 -7.02253,-2.62459 -7.666276,0.59416 -0.217659,1.08828 0.742979,2.27737 2.119649,2.62374 1.459191,0.36711 3.89932,0.10287 4.724968,-0.51173 z"
         id="path2705" /><path
         style="fill:#ff6100;fill-opacity:1;stroke-width:0.279165"
         d="m 110.91431,167.54727 c 1.00098,-0.74508 1.29993,-1.72966 0.82166,-2.70617 -1.49525,-3.05297 -7.02253,-2.62459 -7.66628,0.59416 -0.21766,1.08828 0.74298,2.27737 2.11965,2.62374 1.45919,0.36711 3.89932,0.10287 4.72497,-0.51173 z"
         id="path3443" /></g></g></svg>
