<?xml version="1.0" encoding="UTF-8" standalone="no"?>
<!-- Created with Inkscape (http://www.inkscape.org/) -->

<svg
   width="128"
   height="128"
   viewBox="0 0 33.866666 33.866666"
   version="1.1"
   id="svg1155"
   inkscape:version="1.2.2 (732a01da63, 2022-12-09)"
   sodipodi:docname="star_hollow_filled.svg"
   xml:space="preserve"
   xmlns:inkscape="http://www.inkscape.org/namespaces/inkscape"
   xmlns:sodipodi="http://sodipodi.sourceforge.net/DTD/sodipodi-0.dtd"
   xmlns="http://www.w3.org/2000/svg"
   xmlns:svg="http://www.w3.org/2000/svg"><sodipodi:namedview
     id="namedview1157"
     pagecolor="#505050"
     bordercolor="#eeeeee"
     borderopacity="1"
     inkscape:showpageshadow="0"
     inkscape:pageopacity="0"
     inkscape:pagecheckerboard="0"
     inkscape:deskcolor="#505050"
     inkscape:document-units="px"
     showgrid="false"
     inkscape:zoom="5.6568543"
     inkscape:cx="29.168154"
     inkscape:cy="77.428192"
     inkscape:window-width="1920"
     inkscape:window-height="1009"
     inkscape:window-x="3832"
     inkscape:window-y="1063"
     inkscape:window-maximized="1"
     inkscape:current-layer="layer1" /><defs
     id="defs1152" /><g
     inkscape:label="Layer 1"
     inkscape:groupmode="layer"
     id="layer1"><path
       style="fill:#000000;fill-opacity:1;stroke:#000000;stroke-width:1.5141;stroke-dasharray:none;stroke-opacity:1"
       d="m 7.9366487,30.964678 c 0.3059828,-0.797376 3.2943723,-10.161613 3.2943723,-10.323043 0,-0.106301 -2.0074983,-1.645309 -4.4611076,-3.420025 L 2.3088055,13.994852 7.9071813,13.942766 13.505555,13.89068 15.121211,8.8955692 C 15.6777,7.110578 16.013,6.3513767 16.933503,3.4747902 c 0.628205,2.0777815 1.333662,3.9390501 1.8123,5.420779 l 1.61565,4.9951108 5.598377,0.05209 5.598372,0.05209 -4.461101,3.226758 c -2.453611,1.774716 -4.46111,3.313726 -4.46111,3.420025 0,0.16143 2.658904,8.301885 3.294372,10.323043 -2.581508,-1.64707 -1.95663,-1.395789 -4.364167,-2.997883 -2.529328,-1.683138 -4.539312,-3.255207 -4.632693,-3.255207 -0.09336,0 -2.178086,1.464846 -4.632686,3.255207 -2.4546047,1.790368 -0.747134,0.55065 -4.3641683,2.997883 z"
       id="path245"
       sodipodi:nodetypes="csscccccccccsscsssc" /></g></svg>
