<?xml version="1.0" encoding="UTF-8" standalone="no"?>
<!-- Created with Inkscape (http://www.inkscape.org/) -->

<svg
   width="128"
   height="128"
   viewBox="0 0 128 128"
   version="1.1"
   id="svg1"
   inkscape:version="1.2.2 (732a01da63, 2022-12-09)"
   sodipodi:docname="crafted_hollow.svg"
   xml:space="preserve"
   xmlns:inkscape="http://www.inkscape.org/namespaces/inkscape"
   xmlns:sodipodi="http://sodipodi.sourceforge.net/DTD/sodipodi-0.dtd"
   xmlns="http://www.w3.org/2000/svg"
   xmlns:svg="http://www.w3.org/2000/svg"><sodipodi:namedview
     id="namedview1"
     pagecolor="#909090"
     bordercolor="#616161"
     borderopacity="1"
     inkscape:showpageshadow="0"
     inkscape:pageopacity="0"
     inkscape:pagecheckerboard="0"
     inkscape:deskcolor="#6d6d6d"
     inkscape:document-units="px"
     inkscape:zoom="256"
     inkscape:cx="128.23438"
     inkscape:cy="96.714844"
     inkscape:window-width="1920"
     inkscape:window-height="1009"
     inkscape:window-x="3832"
     inkscape:window-y="1063"
     inkscape:window-maximized="1"
     inkscape:current-layer="layer1"
     showgrid="false" /><defs
     id="defs1" /><g
     inkscape:label="Layer 1"
     inkscape:groupmode="layer"
     id="layer1"><path
       style="fill:none;stroke:#000000;stroke-width:4.77012;stroke-dasharray:none;stroke-opacity:1"
       d="m 33.517829,94.490224 c -0.208411,-0.208407 -0.307986,-1.402437 -0.307986,-3.693077 0,-2.856755 0.07008,-3.465412 0.449146,-3.899694 0.247034,-0.283033 3.509774,-2.791189 7.250537,-5.573686 3.740763,-2.782494 7.003504,-5.290654 7.250536,-5.573684 0.400901,-0.459325 0.449147,-1.174106 0.449147,-6.65416 0,-6.588939 -0.08105,-7.096331 -1.412571,-8.842034 C 46.142966,58.872453 44.68316,58.341596 41.905853,58.329904 35.679355,58.303684 25.985628,55.584748 18.539694,51.77606 11.938871,48.399656 6.1314943,43.736849 3.3111691,39.548905 2.5493622,38.41769 2.2131314,37.491924 2.4752696,37.247381 2.5105561,37.214461 10.739597,37.127832 20.762021,37.054896 l 18.222583,-0.132633 0.02796,-1.452968 c 0.01536,-0.799133 0.09836,-1.636474 0.18444,-1.860758 0.142113,-0.370355 4.086726,-0.407786 42.97476,-0.407786 32.960936,0 42.889206,0.0709 43.126286,0.307991 0.42479,0.424766 0.41429,4.843101 -0.0122,5.407958 -0.17633,0.233353 -1.34567,0.783449 -2.59825,1.222437 -10.39804,3.644166 -23.390073,11.016629 -29.091917,16.508499 -2.974909,2.865341 -4.518175,4.858284 -5.705322,7.367691 l -0.781732,1.652425 -2.03e-4,4.78387 c -1.82e-4,4.189106 0.05581,4.847849 0.448952,5.298471 0.247043,0.28303 3.509781,2.79119 7.250528,5.573684 3.740767,2.782497 7.003514,5.290653 7.250544,5.573686 0.37904,0.434282 0.44917,1.04294 0.44917,3.899694 0,2.290642 -0.0994,3.48467 -0.30801,3.693077 -0.22602,0.226024 -2.38177,0.30799 -8.100054,0.30799 h -7.79206 l -1.203711,-0.920745 c -2.64702,-2.024747 -7.569801,-3.882314 -11.836927,-4.466565 -1.147534,-0.15714 -3.581052,-0.285674 -5.407796,-0.285674 -7.00285,0 -12.490647,1.469466 -16.838531,4.508852 l -1.665303,1.164132 h -7.764386 c -5.696758,0 -7.846401,-0.08202 -8.072371,-0.30799 z"
       id="path1" /></g></svg>
