<?xml version="1.0" encoding="UTF-8" standalone="no"?>
<!-- Created with Inkscape (http://www.inkscape.org/) -->

<svg
   width="128"
   height="128"
   viewBox="0 0 33.866666 33.866666"
   version="1.1"
   id="svg1155"
   inkscape:version="1.2.2 (732a01da63, 2022-12-09)"
   sodipodi:docname="edit.svg"
   xml:space="preserve"
   xmlns:inkscape="http://www.inkscape.org/namespaces/inkscape"
   xmlns:sodipodi="http://sodipodi.sourceforge.net/DTD/sodipodi-0.dtd"
   xmlns="http://www.w3.org/2000/svg"
   xmlns:svg="http://www.w3.org/2000/svg"><sodipodi:namedview
     id="namedview1157"
     pagecolor="#505050"
     bordercolor="#eeeeee"
     borderopacity="1"
     inkscape:showpageshadow="0"
     inkscape:pageopacity="0"
     inkscape:pagecheckerboard="0"
     inkscape:deskcolor="#505050"
     inkscape:document-units="px"
     showgrid="false"
     inkscape:zoom="256"
     inkscape:cx="-0.25976562"
     inkscape:cy="0.734375"
     inkscape:window-width="1920"
     inkscape:window-height="1009"
     inkscape:window-x="3832"
     inkscape:window-y="1064"
     inkscape:window-maximized="1"
     inkscape:current-layer="layer1" /><defs
     id="defs1152" /><g
     inkscape:label="Layer 1"
     inkscape:groupmode="layer"
     id="layer1"><path
       style="fill:#000000;stroke-width:0.304038"
       d="m 0.66279145,33.564159 c -0.35975394,-0.25198 -0.6540986,-0.660838 -0.6540986,-0.908578 0,-0.247727 0.77668721,-2.394855 1.72596845,-4.771368 L 3.4606278,23.563268 15.189193,11.781754 C 25.457943,1.466658 27.032023,2.4854767e-4 27.835776,2.4854767e-4 c 0.747165,0 1.393026,0.47749659233 3.470297,2.56561305233 2.12334,2.1344158 2.552283,2.7274811 2.552283,3.528786 0,0.8631763 -1.19696,2.1527457 -11.528142,12.4200494 L 10.802071,29.971574 7.1536061,31.54831 C 0.97087796,34.220262 1.406397,34.084999 0.66279145,33.564159 Z M 5.5038687,29.91352 c 1.4090201,-0.604279 2.6633778,-1.191502 2.7874604,-1.304945 0.1240786,-0.113419 -0.5201,-0.942683 -1.4315178,-1.842779 -1.6462973,-1.62585 -1.6590251,-1.631721 -1.948442,-0.89934 -0.1602381,0.405457 -0.7054399,1.72912 -1.2115802,2.94148 -0.5061443,1.212359 -0.8837,2.204284 -0.8390185,2.204284 0.04468,0 1.2340781,-0.494411 2.6430981,-1.0987 z M 26.610552,7.3012739 24.633666,5.3243783 l -9.03934,9.0393497 -9.0393392,9.03934 1.9661818,1.983813 1.9661814,1.983812 9.050042,-9.046268 9.050041,-9.0462674 z M 31.027584,6.8337532 31.748582,6.0662879 29.801026,4.1012642 27.85347,2.1362383 26.99919,2.9546912 26.144909,3.7731419 28.041934,5.6871822 c 1.043362,1.0527221 1.979742,1.9140364 2.08084,1.9140364 0.1011,0 0.508263,-0.3453581 0.90481,-0.7674654 z"
       id="path299" /></g></svg>
