<?xml version="1.0" encoding="UTF-8" standalone="no"?>
<!-- Created with Inkscape (http://www.inkscape.org/) -->

<svg
   width="128"
   height="128"
   viewBox="0 0 33.866666 33.866666"
   version="1.1"
   id="svg1155"
   inkscape:version="1.2.2 (732a01da63, 2022-12-09)"
   sodipodi:docname="eye.svg"
   xml:space="preserve"
   xmlns:inkscape="http://www.inkscape.org/namespaces/inkscape"
   xmlns:sodipodi="http://sodipodi.sourceforge.net/DTD/sodipodi-0.dtd"
   xmlns="http://www.w3.org/2000/svg"
   xmlns:svg="http://www.w3.org/2000/svg"><sodipodi:namedview
     id="namedview1157"
     pagecolor="#505050"
     bordercolor="#eeeeee"
     borderopacity="1"
     inkscape:showpageshadow="0"
     inkscape:pageopacity="0"
     inkscape:pagecheckerboard="0"
     inkscape:deskcolor="#505050"
     inkscape:document-units="px"
     showgrid="false"
     inkscape:zoom="4"
     inkscape:cx="52.125"
     inkscape:cy="45.5"
     inkscape:window-width="1920"
     inkscape:window-height="1009"
     inkscape:window-x="3832"
     inkscape:window-y="1063"
     inkscape:window-maximized="1"
     inkscape:current-layer="layer1" /><defs
     id="defs1152" /><g
     inkscape:label="Layer 1"
     inkscape:groupmode="layer"
     id="layer1"><g
       id="g481"><path
         style="display:inline;fill:#000000;stroke-width:0.0833156"
         d="M 15.598945,26.415804 C 12.451193,26.159528 9.466012,25.097039 6.5202118,23.184491 4.3971819,21.806125 1.9091754,19.467612 0.3588437,17.393337 L 3.0880679e-5,16.91326 0.48870766,16.275249 C 3.0885487,12.880927 6.7971972,10.021302 10.419879,8.6176259 c 2.270614,-0.8797886 4.069029,-1.2158021 6.514806,-1.2172161 3.449983,-0.00197 6.401167,0.8502295 9.706292,2.8029212 2.378312,1.405123 5.119878,3.892874 6.868726,6.232806 l 0.357987,0.478987 -0.234249,0.312509 c -2.465256,3.288938 -5.79248,6.026927 -9.184441,7.557923 -2.857012,1.289539 -5.976589,1.86419 -8.850055,1.630248 z M 11.578098,23.018168 C 9.5812845,21.26462 8.5492966,18.62292 8.8512032,16.037795 c 0.2157532,-1.847462 1.0393856,-3.543354 2.3720558,-4.884162 0.824636,-0.829675 0.832153,-0.823326 -0.412285,-0.348214 -2.5831574,0.986224 -5.5249898,3.045668 -7.4697492,5.22923 -0.4052694,0.455037 -0.736855,0.850437 -0.736855,0.878675 0,0.02824 0.3134502,0.405773 0.6965562,0.838976 1.9469314,2.201521 4.6606969,4.112672 7.46839,5.259568 1.240111,0.506568 1.379691,0.507651 0.808782,0.0064 z m 11.324952,0.07031 c 1.828559,-0.712612 3.650757,-1.776734 5.277367,-3.081856 0.786218,-0.63083 2.498616,-2.297184 2.89586,-2.817999 l 0.208646,-0.273542 -0.320522,-0.391154 c -1.479857,-1.805968 -4.045527,-3.838357 -6.281347,-4.975749 -0.880987,-0.44817 -2.163693,-0.985347 -2.62167,-1.097916 -0.227371,-0.05588 -0.21225,-0.02974 0.188774,0.326421 1.311191,1.164526 2.129338,2.497877 2.565256,4.180662 0.249687,0.963871 0.309619,2.555031 0.128656,3.415948 -0.398262,1.894769 -1.388841,3.616841 -2.707076,4.706099 -0.222651,0.183975 -0.351755,0.334506 -0.286895,0.334506 0.06484,0 0.493685,-0.146436 0.952949,-0.325418 z m -4.610101,-0.139155 c 0.746245,-0.163395 1.957995,-0.748929 2.538465,-1.226586 1.019972,-0.839321 1.784502,-2.064854 2.114178,-3.389005 0.146496,-0.588431 0.168495,-0.866076 0.131916,-1.666314 -0.07937,-1.737514 -0.566736,-2.840879 -1.808328,-4.094067 -0.659865,-0.666025 -0.912905,-0.859197 -1.501763,-1.146435 -1.0921,-0.532714 -1.914396,-0.707606 -3.080582,-0.655209 -2.317936,0.104177 -4.23083,1.32542 -5.251082,3.352474 -1.160302,2.305318 -0.784747,5.103961 0.934153,6.961352 0.824158,0.890558 2.075909,1.619237 3.190064,1.857038 0.776058,0.165635 1.993648,0.168654 2.732973,0.0068 z"
         id="path299"
         sodipodi:nodetypes="ssscsscsscssssssssssssssscssssssssscssssssssscc" /><path
         style="display:inline;fill:#000000;stroke-width:0.0833156"
         d="m 13.554455,17.184621 c -0.08524,-0.973782 0.426493,-2.219945 1.160008,-2.824856 0.515787,-0.425354 1.2755,-0.752558 1.847368,-0.795649 0.792066,-0.05968 0.784293,-0.06294 0.631004,0.264606 -0.385398,0.823526 0.129036,1.939093 1.023216,2.219014 0.636562,0.199274 1.142845,0.104198 1.693705,-0.318096 0.279906,-0.214565 0.48672,0.882423 0.338162,1.793683 -0.228945,1.404354 -1.483312,2.581421 -2.908541,2.729299 -0.686311,0.07122 -1.044441,0.02554 -1.650219,-0.210406 -1.157467,-0.450838 -2.025781,-1.613198 -2.134703,-2.857595 z"
         id="path471"
         sodipodi:nodetypes="ssssssssss" /></g></g></svg>
