<?xml version="1.0" encoding="UTF-8" standalone="no"?>
<!-- Created with Inkscape (http://www.inkscape.org/) -->

<svg
   width="128"
   height="128"
   viewBox="0 0 33.866666 33.866666"
   version="1.1"
   id="svg1155"
   inkscape:version="1.2.2 (732a01da63, 2022-12-09)"
   sodipodi:docname="filter.svg"
   xml:space="preserve"
   xmlns:inkscape="http://www.inkscape.org/namespaces/inkscape"
   xmlns:sodipodi="http://sodipodi.sourceforge.net/DTD/sodipodi-0.dtd"
   xmlns="http://www.w3.org/2000/svg"
   xmlns:svg="http://www.w3.org/2000/svg"><sodipodi:namedview
     id="namedview1157"
     pagecolor="#505050"
     bordercolor="#eeeeee"
     borderopacity="1"
     inkscape:showpageshadow="0"
     inkscape:pageopacity="0"
     inkscape:pagecheckerboard="0"
     inkscape:deskcolor="#505050"
     inkscape:document-units="px"
     showgrid="false"
     inkscape:zoom="256"
     inkscape:cx="127.36133"
     inkscape:cy="11.660156"
     inkscape:window-width="1920"
     inkscape:window-height="1009"
     inkscape:window-x="3832"
     inkscape:window-y="1063"
     inkscape:window-maximized="1"
     inkscape:current-layer="layer1" /><defs
     id="defs1152" /><g
     inkscape:label="Layer 1"
     inkscape:groupmode="layer"
     id="layer1"><path
       style="fill:#000000;stroke-width:0.135832"
       d="M 19.132426,31.071202 C 17.897704,30.807049 16.796455,29.91837 16.275552,28.76579 L 15.959843,28.067226 H 8.324545 c -7.076432,0 -7.65542164,-0.01737 -7.91020885,-0.237706 -0.42606576,-0.368406 -0.47775722,-0.757137 -0.15521219,-1.167194 L 0.5430267,26.301401 h 7.7141639 7.7141644 l 0.229146,-0.600011 c 0.731035,-1.914187 2.993592,-2.976654 4.952974,-2.32585 0.91447,0.303736 1.947143,1.24767 2.390691,2.185252 l 0.350364,0.740609 h 4.740313 4.740314 l 0.283905,0.360925 c 0.32255,0.410057 0.270856,0.798788 -0.155211,1.167194 -0.250382,0.216499 -0.694691,0.237752 -4.980052,0.238218 l -4.705145,5.63e-4 -0.244175,0.593845 c -0.702985,1.709636 -2.685552,2.784867 -4.442063,2.409081 z m 1.587193,-1.925955 c 1.412937,-0.533844 1.796532,-2.427548 0.711521,-3.512558 -1.410577,-1.410573 -3.657041,-0.432195 -3.657041,1.59271 0,1.496544 1.492016,2.469021 2.94552,1.919848 z M 5.8648402,20.645661 C 5.0642303,20.361975 4.1319867,19.490509 3.7129858,18.634098 L 3.355742,17.903925 1.9440678,17.857874 c -1.58290475,-0.05161 -1.87352875,-0.195726 -1.87352875,-0.928946 0,-0.733231 0.290624,-0.877329 1.87352875,-0.92895 l 1.4116742,-0.04604 0.3572438,-0.730174 c 1.4935054,-3.052616 5.9478917,-2.947993 7.2341922,0.16991 l 0.23902,0.579371 11.099531,0.03649 c 12.314639,0.04047 11.561926,-0.01937 11.561926,0.919393 0,0.938774 0.752713,0.878919 -11.561926,0.919391 l -11.099531,0.03649 -0.23902,0.579371 C 10.34436,19.925364 8.9060146,20.876267 7.3272253,20.857353 6.8348774,20.851553 6.176804,20.756194 5.8648402,20.645644 Z M 8.1843349,18.912932 C 9.2945803,18.44904 9.7954066,16.957574 9.1883479,15.922969 8.2940378,14.398804 6.4465035,14.353666 5.4504916,15.831633 4.3083911,17.526391 6.2541245,19.71941 8.1843349,18.91292 Z M 25.747219,10.492755 C 24.588159,10.060814 23.855462,9.3573218 23.331895,8.1737076 L 23.058864,7.5564851 H 11.800952 c 0,0 -9.0720003,0.1597015 -11.25791932,0 C 0.15829139,7.5177993 -0.38827796,6.7479564 0.41434214,6.0283687 0.6713598,5.8061296 1.4171451,5.7906623 11.874063,5.7906623 H 23.05887 l 0.262718,-0.5939177 c 1.422904,-3.2166965 5.946717,-3.2482381 7.3565,-0.051278 l 0.284518,0.6452058 h 1.133177 c 1.300281,0 1.740564,0.2201605 1.740564,0.8703684 0,0.6778696 -0.365839,0.8728883 -1.72705,0.9206481 -1.217675,0.042731 -1.217675,0.042731 -1.339268,0.4676034 -0.200154,0.6994095 -1.055918,1.6909542 -1.838228,2.1299007 -0.873601,0.490166 -2.326758,0.633253 -3.184576,0.313572 z M 27.95879,8.6091904 c 0.778897,-0.3980007 1.112317,-0.8758019 1.192347,-1.7086961 0.13273,-1.3813466 -0.933346,-2.4210087 -2.361113,-2.3026078 -2.1706,0.1799928 -2.665789,3.1542899 -0.67564,4.058107 0.732075,0.3324673 1.121494,0.3225891 1.844406,-0.046805 z"
       id="path305"
       sodipodi:nodetypes="cscscscccssscccssccsccssssccccsccssccsccsccccsccccsccccscsscsscssccsscsss" /></g></svg>
