<?xml version="1.0" encoding="UTF-8" standalone="no"?>
<!-- Created with Inkscape (http://www.inkscape.org/) -->

<svg
   width="128"
   height="128"
   viewBox="0 0 33.866666 33.866666"
   version="1.1"
   id="svg1155"
   inkscape:version="1.2.2 (732a01da63, 2022-12-09)"
   sodipodi:docname="kofi.svg"
   xml:space="preserve"
   xmlns:inkscape="http://www.inkscape.org/namespaces/inkscape"
   xmlns:sodipodi="http://sodipodi.sourceforge.net/DTD/sodipodi-0.dtd"
   xmlns="http://www.w3.org/2000/svg"
   xmlns:svg="http://www.w3.org/2000/svg"><sodipodi:namedview
     id="namedview1157"
     pagecolor="#505050"
     bordercolor="#eeeeee"
     borderopacity="1"
     inkscape:showpageshadow="0"
     inkscape:pageopacity="0"
     inkscape:pagecheckerboard="0"
     inkscape:deskcolor="#505050"
     inkscape:document-units="px"
     showgrid="false"
     inkscape:zoom="2.8284271"
     inkscape:cx="6.7175144"
     inkscape:cy="45.961941"
     inkscape:window-width="1920"
     inkscape:window-height="1009"
     inkscape:window-x="3832"
     inkscape:window-y="1064"
     inkscape:window-maximized="1"
     inkscape:current-layer="layer1" /><defs
     id="defs1152" /><g
     inkscape:label="Layer 1"
     inkscape:groupmode="layer"
     id="layer1"><g
       id="g7367"
       transform="matrix(0.52705835,0,0,0.52705835,-14.023833,-50.619034)"><path
         id="rect7299"
         style="opacity:1;fill:#ffffff;fill-opacity:1;stroke-width:1.81769;stroke-linecap:round;stroke-linejoin:round"
         d="m 29.766141,108.80524 v 37.74602 h 40.849702 l 1.583366,-7.97988 11.526428,-3.29282 3.673161,-4.0535 1.520321,-9.22217 v -2.85926 l -2.913518,-4.25866 -5.193481,-5.19296 -2.85719,-0.88677 z m 45.307828,7.3825 c 3.50634,-0.0475 5.973924,2.3599 7.258472,7.56388 -0.216724,5.18653 -2.44321,8.62579 -10.386446,7.09362 l -0.380339,-13.93352 c 1.2639,-0.46488 2.434944,-0.70943 3.508313,-0.72398 z" /><path
         style="fill:#000000;stroke-width:0.264583"
         d="m 33.705516,149.26037 c -2.476324,-0.35499 -4.870046,-2.18346 -6.026748,-4.60361 -0.847201,-1.77257 -1.028944,-5.49928 -1.052256,-21.5769 l -0.01826,-12.59224 0.615162,-1.1661 c 0.383501,-0.72696 1.006241,-1.38864 1.653646,-1.75705 l 1.038484,-0.59096 23.018749,2.4e-4 c 25.766926,2.7e-4 25.058025,-0.0454 28.932266,1.86434 4.64286,2.28862 7.731058,6.33042 8.676623,11.35588 1.385726,7.36479 -1.781672,14.15517 -8.147584,17.46708 -2.153422,1.12033 -5.462095,2.10924 -7.080191,2.11614 -1.29962,0.006 -1.447215,0.16445 -1.810488,1.94929 -0.630606,3.09829 -2.251263,5.3201 -4.884976,6.69696 -1.314196,0.68704 -1.628521,0.73514 -5.234609,0.80095 -9.196091,0.16783 -28.596025,0.19135 -29.679819,0.036 z m 33.383986,-4.20133 c 0.509323,-0.25691 1.129852,-0.69248 1.378958,-0.96794 0.845928,-0.93544 1.533421,-2.93843 1.704916,-4.96721 0.202687,-2.39778 0.562356,-2.78545 2.597394,-2.79957 2.425065,-0.0168 5.46351,-0.72003 7.538468,-1.74467 5.409044,-2.67104 7.826986,-7.93077 6.50753,-14.15578 -0.751184,-3.54397 -2.89057,-6.36537 -6.139016,-8.09604 -3.183352,-1.696 -2.7139,-1.66894 -27.658815,-1.5942 l -22.574226,0.0676 0.0063,15.61042 c 0.0058,14.43226 0.04191,15.68287 0.477927,16.57049 0.259385,0.52803 0.751269,1.22279 1.093075,1.5439 1.432993,1.34623 1.458844,1.34787 18.39872,1.16759 14.315143,-0.15234 15.826681,-0.20989 16.66875,-0.63462 z m 3.704166,-13.2234 c -0.505068,-0.50507 -0.529166,-0.88195 -0.529166,-8.27551 0,-6.58282 0.06186,-7.83466 0.411876,-8.33437 0.385877,-0.55092 0.608095,-0.58804 3.519927,-0.58804 2.803443,0 3.241114,0.0663 4.465804,0.6766 1.668862,0.83163 3.082036,2.35663 4.002045,4.31873 0.599964,1.27954 0.697222,1.83758 0.697222,4.0005 0,2.21865 -0.08711,2.69093 -0.742461,4.02549 -0.910677,1.8545 -2.665351,3.44903 -4.586358,4.16777 -2.067605,0.77359 -6.468758,0.77896 -7.238889,0.009 z m 6.002046,-3.45642 c 1.858428,-0.70216 2.997415,-2.53314 2.987977,-4.80331 -0.01305,-3.13913 -2.24505,-5.48976 -5.21971,-5.49713 l -0.595313,-10e-4 v 5.29167 5.29167 h 1.041109 c 0.572611,0 1.376283,-0.12664 1.785937,-0.28142 z"
         id="path6136" /><path
         style="fill:#ff586f;fill-opacity:1;stroke-width:1.81769;stroke-linecap:round;stroke-linejoin:round"
         d="M 50.768407,139.81212 C 38.71917,130.13196 35.627838,124.58946 39.515353,120.0628 c 3.310253,-3.85449 9.24898,-2.10447 11.253054,0.58225 3.054697,-2.71571 7.901557,-4.4695 11.652346,0.41761 2.672221,3.48178 0.175224,9.35731 -11.652346,18.74946 z"
         id="path6192"
         sodipodi:nodetypes="cscsc" /></g></g></svg>
