<?xml version="1.0" encoding="UTF-8" standalone="no"?>
<!-- Created with Inkscape (http://www.inkscape.org/) -->

<svg
   width="128"
   height="128"
   viewBox="0 0 33.866666 33.866666"
   version="1.1"
   id="svg1155"
   inkscape:version="1.2.2 (732a01da63, 2022-12-09)"
   sodipodi:docname="more.svg"
   xml:space="preserve"
   xmlns:inkscape="http://www.inkscape.org/namespaces/inkscape"
   xmlns:sodipodi="http://sodipodi.sourceforge.net/DTD/sodipodi-0.dtd"
   xmlns="http://www.w3.org/2000/svg"
   xmlns:svg="http://www.w3.org/2000/svg"><sodipodi:namedview
     id="namedview1157"
     pagecolor="#505050"
     bordercolor="#eeeeee"
     borderopacity="1"
     inkscape:showpageshadow="0"
     inkscape:pageopacity="0"
     inkscape:pagecheckerboard="0"
     inkscape:deskcolor="#505050"
     inkscape:document-units="px"
     showgrid="false"
     inkscape:zoom="256"
     inkscape:cx="49.173828"
     inkscape:cy="0.140625"
     inkscape:window-width="1920"
     inkscape:window-height="1009"
     inkscape:window-x="-8"
     inkscape:window-y="-8"
     inkscape:window-maximized="1"
     inkscape:current-layer="layer1" /><defs
     id="defs1152" /><g
     inkscape:label="Layer 1"
     inkscape:groupmode="layer"
     id="layer1"><g
       id="g352"
       transform="matrix(0.24451616,0,0,0.24451616,0.55334449,-13.983524)"><path
         style="fill:#000000;stroke-width:0.264583"
         d="M 63.820169,86.895722 C 58.628402,85.776635 54.130385,81.637824 52.564647,76.53905 49.926408,67.947712 55.87006,58.636401 64.812357,57.351817 c 7.865061,-1.129836 15.229217,4.036645 16.866022,11.832719 0.490299,2.335276 0.490299,3.75014 0,6.085416 -1.224193,5.830802 -5.8097,10.416309 -11.640502,11.640502 -2.2646,0.475458 -3.96223,0.471437 -6.217708,-0.01474 z"
         id="path347" /><path
         style="fill:#000000;stroke-width:0.264583"
         d="m 64.349336,141.27887 c -7.871324,-1.36824 -13.375597,-9.01725 -12.229594,-16.99486 0.696249,-4.84675 3.842597,-9.1329 8.260844,-11.25345 3.581924,-1.71915 6.546956,-2.04665 10.161055,-1.12232 5.707208,1.45966 9.945554,5.8423 11.136738,11.51587 0.490299,2.33528 0.490299,3.75014 0,6.08542 -1.659911,7.90613 -9.382021,13.15074 -17.329043,11.76934 z"
         id="path345" /><path
         style="fill:#000000;stroke-width:0.264583"
         d="m 64.746211,195.63406 c -0.291042,-0.0705 -1.064948,-0.26049 -1.719792,-0.42217 -3.780781,-0.93347 -7.599266,-4.08436 -9.451341,-7.79893 -4.404061,-8.8329 0.702503,-19.3585 10.377383,-21.38977 3.433926,-0.72096 6.549069,-0.29444 9.902343,1.35581 3.881191,1.91007 6.897911,5.87577 7.823575,10.28469 0.490299,2.33528 0.490299,3.75014 0,6.08542 -1.419114,6.75921 -7.096448,11.58826 -13.994145,11.90317 -1.324872,0.0605 -2.646981,0.0523 -2.938023,-0.0182 z"
         id="path343" /></g></g></svg>
