<?xml version="1.0" encoding="UTF-8" standalone="no"?>
<!-- Created with Inkscape (http://www.inkscape.org/) -->

<svg
   width="128"
   height="128"
   viewBox="0 0 33.866666 33.866666"
   version="1.1"
   id="svg1155"
   inkscape:version="1.2.2 (732a01da63, 2022-12-09)"
   sodipodi:docname="news.svg"
   xml:space="preserve"
   xmlns:inkscape="http://www.inkscape.org/namespaces/inkscape"
   xmlns:sodipodi="http://sodipodi.sourceforge.net/DTD/sodipodi-0.dtd"
   xmlns="http://www.w3.org/2000/svg"
   xmlns:svg="http://www.w3.org/2000/svg"><sodipodi:namedview
     id="namedview1157"
     pagecolor="#505050"
     bordercolor="#eeeeee"
     borderopacity="1"
     inkscape:showpageshadow="0"
     inkscape:pageopacity="0"
     inkscape:pagecheckerboard="0"
     inkscape:deskcolor="#505050"
     inkscape:document-units="px"
     showgrid="false"
     inkscape:zoom="1.4142136"
     inkscape:cx="-22.98097"
     inkscape:cy="-4.9497474"
     inkscape:window-width="1920"
     inkscape:window-height="1009"
     inkscape:window-x="3832"
     inkscape:window-y="1076"
     inkscape:window-maximized="1"
     inkscape:current-layer="layer1" /><defs
     id="defs1152" /><g
     inkscape:label="Layer 1"
     inkscape:groupmode="layer"
     id="layer1"><g
       id="g457"
       transform="matrix(1.7664884,0,0,1.7664884,101.02827,139.1083)"><path
         style="fill:#000000;stroke-width:5.41331;stroke-linecap:round;stroke-linejoin:round"
         d="m -47.83616,-60.804022 c 1.50986,-1.560374 2.789111,-2.583817 3.830747,-3.761098 -0.202248,-0.2625 -0.47878,-0.480429 -0.8358,-0.650066 0.646324,-1.538507 1.430693,-2.990736 2.414532,-4.318297 0,0 2.170264,1.303618 2.971731,1.810899 0.118421,0.07496 -0.156608,0.331257 -0.04644,0.417898 0.102013,0.08022 0.891909,0.276168 0.882232,0.371468 -0.122174,1.20319 -1.48996,3.534502 -1.857332,3.436065 -0.339427,-0.09096 -0.689646,-0.589386 -1.114398,-0.696499 -0.217562,-0.05487 -0.298908,0.554104 -0.510767,0.464332 -0.239452,-0.10147 -0.603633,-0.301817 -0.603633,-0.301817 -0.876828,1.333416 -1.737036,3.266652 -2.623481,4.434382 -0.997894,0.161851 -2.011223,-0.677265 -2.507391,-1.207267 z"
         id="path451"
         sodipodi:nodetypes="ccccssssssccc" /><path
         style="fill:#000000;stroke-width:3.69173;stroke-linecap:round;stroke-linejoin:round"
         d="m -56.591885,-67.09518 c 4.48326,0.20748 8.155204,0.965381 11.399858,1.456647 0.484217,-1.622186 1.439442,-2.90182 2.37497,-4.19578 -2.434444,-3.030693 -5.09118,-5.802569 -7.283242,-8.914056 -3.824348,3.17869 -6.044779,7.039044 -6.491586,11.653189 z"
         id="path453"
         sodipodi:nodetypes="ccccc" /></g></g></svg>
