<?xml version="1.0" encoding="UTF-8" standalone="no"?>
<!-- Created with Inkscape (http://www.inkscape.org/) -->

<svg
   width="128"
   height="128"
   viewBox="0 0 33.866666 33.866666"
   version="1.1"
   id="svg1155"
   inkscape:version="1.2.2 (732a01da63, 2022-12-09)"
   sodipodi:docname="resurgence.svg"
   xml:space="preserve"
   xmlns:inkscape="http://www.inkscape.org/namespaces/inkscape"
   xmlns:sodipodi="http://sodipodi.sourceforge.net/DTD/sodipodi-0.dtd"
   xmlns="http://www.w3.org/2000/svg"
   xmlns:svg="http://www.w3.org/2000/svg"><sodipodi:namedview
     id="namedview1157"
     pagecolor="#505050"
     bordercolor="#eeeeee"
     borderopacity="1"
     inkscape:showpageshadow="0"
     inkscape:pageopacity="0"
     inkscape:pagecheckerboard="0"
     inkscape:deskcolor="#505050"
     inkscape:document-units="px"
     showgrid="false"
     inkscape:zoom="4"
     inkscape:cx="31.375"
     inkscape:cy="47.5"
     inkscape:window-width="1920"
     inkscape:window-height="1009"
     inkscape:window-x="3832"
     inkscape:window-y="1076"
     inkscape:window-maximized="1"
     inkscape:current-layer="layer1" /><defs
     id="defs1152" /><g
     inkscape:label="Layer 1"
     inkscape:groupmode="layer"
     id="layer1"><path
       style="fill:#000000;stroke-width:0.467126"
       d="m 14.039295,31.310002 c -2.709398,-2.743477 -3.005571,-3.932659 -0.44394,-1.78249 l 1.553302,1.303802 -0.910734,-1.556767 C 13.737018,28.418328 12.751775,27.376087 12.048494,26.958461 9.8795372,25.670477 3.1319356,16.701727 1.6331528,13.114635 0.95286663,11.486482 0.96750988,11.291018 1.8804136,9.8139107 2.85751,8.2329342 6.0337723,5.8828923 9.7069363,4.0232505 12.33417,2.6931428 12.295842,3.4220523 9.5393451,7.2102742 8.3552637,8.8375522 7.0133265,11.002396 6.5572666,12.021034 L 5.7280705,13.873108 5.243556,12.542501 C 4.8755254,11.531782 4.7512761,11.436495 4.7267273,12.146148 c -0.038758,1.120392 1.8539461,5.142832 3.1871096,6.773371 1.2057004,1.474643 1.2187077,1.10489 0.051617,-1.467156 C 7.4572532,16.332391 7.0368374,14.970066 7.0311957,14.424977 7.0255946,13.879884 8.4211163,11.288645 10.132445,8.6666652 12.792189,4.5915945 13.235094,3.616406 13.18292,1.95011 13.12571,0.12272454 13.16573,0.05866592 13.821997,0.9260781 c 0.38506,0.5089072 0.936202,1.7132995 1.224762,2.6764226 0.488548,1.6306299 0.391175,2.0114658 -1.41494,5.5340697 -1.575399,3.0726236 -1.93959,4.2614396 -1.93959,6.3313416 0,2.888712 1.34059,5.911996 3.797818,8.564805 l 1.491051,1.609731 1.602935,-1.843296 C 23.055743,18.656918 23.391715,14.538661 19.832775,8.4924164 18.95237,6.9967055 18.23204,5.470406 18.23204,5.1006376 c 0,-0.3697685 0.472967,-1.6685018 1.051041,-2.8860776 L 20.334119,7.8697934e-4 20.589118,2.1028679 c 0.293494,2.4194522 0.74624,3.3477252 3.578078,7.3361826 2.672779,3.7644315 2.927138,5.3685665 1.385277,8.7364345 -0.657837,1.436904 -1.127282,2.612552 -1.043214,2.612552 0.538991,0 4.030901,-6.175394 4.2382,-7.495196 0.233675,-1.48772 0.213205,-1.52257 -0.261965,-0.446001 l -0.515446,1.167825 -0.587107,-1.634954 C 27.06003,11.480486 25.709809,9.1833199 24.382451,7.2748948 23.055093,5.3664696 21.969075,3.6207898 21.969075,3.3956076 c 0,-0.2251821 1.524007,0.3888355 3.386685,1.36449 3.599312,1.8852783 7.357287,5.210277 7.357287,6.5096084 0,2.295478 -7.748477,13.515072 -10.606162,15.357447 -1.261707,0.813432 -2.940587,2.909384 -2.940587,3.671092 0,0.141372 0.515964,-0.258925 1.14659,-0.889552 1.486798,-1.486797 2.369925,-1.490093 1.396994,-0.0052 -0.655683,1.000695 -4.514549,4.464174 -4.973805,4.464174 -0.094,0 -1.307553,-1.150945 -2.696788,-2.557654 z M 8.1357592,27.886358 c -1.0522404,-0.693443 -5.318979,-6.390811 -5.318979,-7.102419 0,-0.413378 0.2763914,-1.129586 0.6142056,-1.591573 0.5781555,-0.790675 0.6601031,-0.769932 1.3961202,0.353371 0.4300513,0.656341 0.6598952,1.511322 0.5107611,1.899957 -0.1572118,0.409676 0.5622503,1.894704 1.7120955,3.533923 1.8563339,2.646385 2.2369779,3.665389 1.0857966,2.906741 z m 16.6360958,0.122853 c 0,-0.164631 0.860072,-1.525427 1.911273,-3.024018 1.211232,-1.726729 1.817332,-3.037141 1.65479,-3.577718 -0.224524,-0.746718 1.066012,-2.95509 1.726903,-2.95509 0.131093,0 0.3763,0.628058 0.544897,1.395689 0.228364,1.039732 0.03693,1.784343 -0.75058,2.919559 -2.23392,3.220231 -5.087283,6.160136 -5.087283,5.241578 z m -8.887019,-8.886544 c -0.939987,-2.47235 -0.26571,-8.611482 0.94582,-8.611482 0.684659,0 1.40139,2.504241 1.40139,4.896428 0,2.731454 -0.622313,4.913286 -1.40139,4.913286 -0.269638,0 -0.695257,-0.539203 -0.94582,-1.198232 z"
       id="path671" /></g></svg>
