<?xml version="1.0" encoding="UTF-8" standalone="no"?>
<!-- Created with Inkscape (http://www.inkscape.org/) -->

<svg
   width="128"
   height="128"
   viewBox="0 0 33.866666 33.866666"
   version="1.1"
   id="svg1155"
   inkscape:version="1.2.2 (732a01da63, 2022-12-09)"
   sodipodi:docname="sell_filled.svg"
   xml:space="preserve"
   xmlns:inkscape="http://www.inkscape.org/namespaces/inkscape"
   xmlns:sodipodi="http://sodipodi.sourceforge.net/DTD/sodipodi-0.dtd"
   xmlns="http://www.w3.org/2000/svg"
   xmlns:svg="http://www.w3.org/2000/svg"><sodipodi:namedview
     id="namedview1157"
     pagecolor="#505050"
     bordercolor="#eeeeee"
     borderopacity="1"
     inkscape:showpageshadow="0"
     inkscape:pageopacity="0"
     inkscape:pagecheckerboard="0"
     inkscape:deskcolor="#505050"
     inkscape:document-units="px"
     showgrid="false"
     inkscape:zoom="256"
     inkscape:cx="-0.22851562"
     inkscape:cy="0.25390625"
     inkscape:window-width="1920"
     inkscape:window-height="1009"
     inkscape:window-x="-8"
     inkscape:window-y="-8"
     inkscape:window-maximized="1"
     inkscape:current-layer="layer1" /><defs
     id="defs1152" /><g
     inkscape:label="Layer 1"
     inkscape:groupmode="layer"
     id="layer1"><path
       id="path494"
       style="fill:#000000;fill-opacity:1;stroke:none;stroke-width:3.46164;stroke-linecap:round;stroke-linejoin:round;stroke-dasharray:none;stroke-opacity:1"
       d="M 16.933334,6.2618149e-8 A 16.933262,16.933262 0 0 0 6.2618149e-8,16.933334 16.933262,16.933262 0 0 0 16.933334,33.866666 16.933262,16.933262 0 0 0 33.866666,16.933334 16.933262,16.933262 0 0 0 16.933334,6.2618149e-8 Z M 16.814294,3.2580541 a 1.7308215,1.7308215 0 0 1 1.730416,1.730982 v 1.47353 c 0.32641,0.06658 0.648156,0.15268 0.962606,0.259164 2.163786,0.7327159 4.103326,2.7306239 4.103326,5.4253419 a 1.7308215,1.7308215 0 0 1 -1.730986,1.730412 1.7308215,1.7308215 0 0 1 -1.730982,-1.730412 c 0,-1.1251 -0.555614,-1.70639 -1.603964,-2.093812 v 4.990176 c 3.00386,0.986064 4.808786,2.849828 5.34332,4.930938 0.60872,2.369948 -0.275688,4.663038 -1.913822,6.000058 -0.988402,0.80672 -2.1738,1.31581 -3.429498,1.548716 v 1.41315 a 1.7308215,1.7308215 0 0 1 -1.730416,1.730982 1.7308215,1.7308215 0 0 1 -1.730982,-1.730982 v -1.441062 c -0.12748,-0.02466 -0.254574,-0.0511 -0.381054,-0.08088 -1.268744,-0.298698 -2.510464,-0.897108 -3.465956,-1.916102 -0.95549,-1.01899 -1.554408,-2.472382 -1.554408,-4.098768 a 1.7308215,1.7308215 0 0 1 1.730982,-1.730982 1.7308215,1.7308215 0 0 1 1.730982,1.730982 c 0,0.849022 0.234808,1.322932 0.617436,1.730984 0.309706,0.330288 0.763578,0.609416 1.322018,0.797424 V 17.690318 C 12.187066,16.756978 10.433614,15.112116 10.06067,13.074934 9.630844,10.72704 11.012622,8.671608 12.799258,7.51004 13.514272,7.045184 14.287262,6.7199821 15.083312,6.5246501 v -1.535614 a 1.7308215,1.7308215 0 0 1 1.730982,-1.730982 z m -1.730982,6.9336139 c -0.14012,0.06546 -0.273196,0.13864 -0.398142,0.219864 -0.877822,0.57071 -1.320792,1.484406 -1.218922,2.040838 0.07104,0.388034 0.398398,0.998122 1.617064,1.55669 z m 3.461398,8.54043 v 5.161054 c 0.509594,-0.15374 0.94821,-0.361058 1.239996,-0.59921 0.504178,-0.411504 0.995626,-1.50707 0.75129,-2.45835 -0.17474,-0.680288 -0.646916,-1.470358 -1.991286,-2.103494 z" /></g></svg>
